<svg width="205" height="307" viewBox="0 0 205 307" fill="none" xmlns="http://www.w3.org/2000/svg">
<g filter="url(#filter0_ii_220_1007)">
<path d="M127.489 181.265L127.196 181.553C119.141 189.478 120.284 202.775 129.573 209.209L143.018 218.521C143.957 219.172 144.839 219.901 145.653 220.702L151.404 226.357C158.845 233.675 171.074 232.565 177.077 224.028C181.987 217.044 180.917 207.495 174.584 201.771L151.339 180.761C149.79 179.361 148.001 178.251 146.058 177.485C139.665 174.964 132.388 176.446 127.489 181.265Z" fill="#EBB57D"/>
</g>
<path d="M125.034 178.77L124.741 179.058C115.122 188.522 116.487 204.403 127.58 212.086L141.025 221.399C141.8 221.935 142.527 222.537 143.199 223.198L148.95 228.853C157.932 237.686 172.695 236.346 179.94 226.041C185.867 217.611 184.576 206.084 176.931 199.175L153.686 178.164C151.825 176.482 149.676 175.149 147.342 174.229C139.662 171.201 130.919 172.981 125.034 178.77Z" stroke="#561D0F" stroke-width="7" stroke-linecap="round"/>
<g filter="url(#filter1_ii_220_1007)">
<path d="M68.3254 180.265L68.6182 180.553C76.6732 188.478 75.5303 201.775 66.2413 208.209L52.7962 217.521C51.8572 218.172 50.9755 218.901 50.1611 219.702L44.4103 225.357C36.9691 232.675 24.7397 231.565 18.7373 223.028C13.8274 216.044 14.8968 206.495 21.23 200.771L44.4751 179.761C46.0243 178.361 47.8131 177.251 49.7557 176.485C56.1487 173.964 63.4266 175.446 68.3254 180.265Z" fill="#EBB57D"/>
</g>
<path d="M70.7799 177.77L71.0728 178.058C80.6925 187.522 79.3276 203.403 68.2341 211.086L54.7891 220.399C54.0143 220.935 53.287 221.537 52.6151 222.198L46.8643 227.853C37.8819 236.686 23.1197 235.346 15.8742 225.041C9.94733 216.611 11.2382 205.084 18.8831 198.175L42.1282 177.164C43.9893 175.482 46.1381 174.149 48.4719 173.229C56.1519 170.201 64.895 171.981 70.7799 177.77Z" stroke="#561D0F" stroke-width="7" stroke-linecap="round"/>
<g filter="url(#filter2_ii_220_1007)">
<path d="M39.0375 263.856C37.9442 252.128 47.1722 242 58.9511 242H76.9122C89.0927 242 98.4447 252.796 96.7078 264.852L93.3942 287.852C91.9762 297.694 83.5426 305 73.5986 305H61.0952C50.7687 305 42.14 297.138 41.1815 286.856L39.0375 263.856Z" fill="#EBB57D"/>
</g>
<path d="M58.9511 245.5H76.9122C86.9611 245.5 94.6765 254.407 93.2435 264.353L89.93 287.353C88.7602 295.473 81.8024 301.5 73.5986 301.5H61.0952C52.5758 301.5 45.4572 295.014 44.6664 286.531L42.5223 263.531C41.6204 253.856 49.2335 245.5 58.9511 245.5Z" stroke="#561D0F" stroke-width="7"/>
<g filter="url(#filter3_ii_220_1007)">
<path d="M100.97 263.8C99.9118 252.091 109.132 242 120.889 242H139.013C151.159 242 160.501 252.737 158.821 264.766L155.33 289.766C153.95 299.647 145.499 307 135.522 307H123.147C112.799 307 104.16 299.106 103.228 288.8L100.97 263.8Z" fill="#EBB57D"/>
</g>
<path d="M120.889 245.5H139.013C149.033 245.5 156.74 254.358 155.355 264.282L151.864 289.282C150.726 297.434 143.753 303.5 135.522 303.5H123.147C114.61 303.5 107.482 296.987 106.714 288.485L104.455 263.485C103.583 253.825 111.19 245.5 120.889 245.5Z" stroke="#561D0F" stroke-width="7"/>
<path d="M72.0125 172H125.651C133.12 172 139.657 177.017 141.589 184.232L159.68 251.797C160.67 255.493 158.923 259.375 155.501 261.086L154.172 261.751C152.189 262.742 149.813 262.498 148.073 261.125C143.987 257.899 138.348 257.489 133.839 260.091L130.648 261.932C129.372 262.668 127.765 262.482 126.691 261.475C122.957 257.975 117.225 257.731 113.208 260.903L112.876 261.165C111.483 262.265 109.517 262.265 108.124 261.165L107.801 260.91C103.834 257.778 98.2757 257.645 94.1634 260.582L93.6477 260.951C91.8035 262.268 89.3185 262.239 87.5055 260.879L87.3415 260.756C83.3445 257.758 77.9449 257.433 73.6172 259.93L70.5202 261.717C68.9723 262.61 67.0271 262.415 65.6871 261.233C61.9242 257.913 56.4083 257.512 52.205 260.253L50.5756 261.316C48.549 262.637 45.9682 262.767 43.8191 261.656L42.9804 261.222C39.5291 259.437 37.7682 255.504 38.7348 251.741L56.0311 184.396C57.9047 177.1 64.4806 172 72.0125 172Z" fill="white" stroke="#561D0F" stroke-width="7"/>
<g filter="url(#filter4_i_220_1007)">
<path d="M82.4404 183.316C82.7819 180.843 84.8962 179 87.3935 179H115.012C117.552 179 119.689 180.905 119.979 183.429L121.359 195.429C121.701 198.397 119.38 201 116.392 201H85.7374C82.7043 201 80.3697 198.321 80.7844 195.316L82.4404 183.316Z" fill="#EBB57D"/>
</g>
<path d="M87.3935 181.5H115.012C116.282 181.5 117.35 182.452 117.496 183.714L118.876 195.714C119.046 197.198 117.886 198.5 116.392 198.5H85.7374C84.2208 198.5 83.0536 197.161 83.2609 195.658L84.917 183.658C85.0877 182.421 86.1449 181.5 87.3935 181.5Z" stroke="#561D0F" stroke-width="5"/>
<g style="mix-blend-mode:darken">
<path d="M52.6819 220H144.318C145.71 220 146.919 220.957 147.238 222.312L149.256 230.869C151.92 242.17 143.347 253 131.736 253H65.2639C53.6532 253 45.0798 242.17 47.7443 230.869L49.762 222.312C50.0813 220.957 51.2903 220 52.6819 220Z" stroke="#D68E5B" stroke-width="4"/>
</g>
<g style="mix-blend-mode:darken">
<path d="M55 203H146.005" stroke="#D68E5B" stroke-width="4" stroke-linecap="round"/>
</g>
<g filter="url(#filter5_i_220_1007)">
<path d="M82.585 233.647C80.8037 227.86 85.1313 222 91.1868 222H99.0001H106.128C112.38 222 116.728 228.218 114.581 234.09L113.648 236.644L110.028 245.429C108.639 248.8 105.353 251 101.707 251H95.7985C92.2604 251 89.0505 248.927 87.5951 245.702L83.5072 236.644L82.585 233.647Z" fill="white"/>
</g>
<path d="M101.707 249.5H95.7985C92.8501 249.5 90.1752 247.772 88.9624 245.085L84.9131 236.112L84.0187 233.206C82.5342 228.383 86.1405 223.5 91.1868 223.5H99.0001H106.128C111.338 223.5 114.961 228.681 113.173 233.575L112.25 236.1L108.641 244.857C107.484 247.667 104.745 249.5 101.707 249.5Z" stroke="#561D0F" stroke-width="3"/>
<g filter="url(#filter6_i_220_1007)">
<path d="M110 228.116C110 230.182 104.26 229.996 98.7557 229.996C93.2512 229.996 87.0001 230.182 87.0001 228.116C87.0001 226.05 89.3001 222.747 98.7557 223.015C107.445 223.015 110 226.05 110 228.116Z" fill="url(#paint0_linear_220_1007)"/>
</g>
<path d="M98.7273 224.015L98.7415 224.015H98.7557C103.002 224.015 105.614 224.76 107.128 225.653C108.631 226.538 109 227.524 109 228.116C109 228.117 109 228.117 109.001 228.116C109.002 228.116 109.004 228.116 108.989 228.134C108.952 228.176 108.849 228.264 108.616 228.365C108.141 228.573 107.38 228.732 106.343 228.836C104.601 229.009 102.374 229.004 100.04 228.998C99.6146 228.997 99.1858 228.996 98.7557 228.996C98.3287 228.996 97.8997 228.997 97.4715 228.998C95.1047 229.004 92.762 229.009 90.9073 228.835C89.8042 228.731 88.9708 228.571 88.4392 228.355C88.1762 228.248 88.0538 228.154 88.0069 228.104C88.0043 228.101 88.0021 228.099 88.0002 228.097C88.0074 227.461 88.363 226.435 89.8453 225.549C91.3739 224.635 94.0965 223.884 98.7273 224.015Z" stroke="#561D0F" stroke-width="2"/>
<g filter="url(#filter7_ii_220_1007)">
<ellipse cx="43" cy="42.5" rx="43" ry="42.5" fill="#EBB57D"/>
</g>
<path d="M82.5 42.5C82.5 64.0006 64.854 81.5 43 81.5C21.146 81.5 3.5 64.0006 3.5 42.5C3.5 20.9994 21.146 3.5 43 3.5C64.854 3.5 82.5 20.9994 82.5 42.5Z" stroke="#561D0F" stroke-width="7"/>
<path d="M63.5 42.5C63.5 53.4942 54.3739 62.5 43 62.5C31.6261 62.5 22.5 53.4942 22.5 42.5C22.5 31.5058 31.6261 22.5 43 22.5C54.3739 22.5 63.5 31.5058 63.5 42.5Z" fill="#D69A77" stroke="#995434" stroke-width="5"/>
<g filter="url(#filter8_ii_220_1007)">
<ellipse cx="162" cy="42.5" rx="43" ry="42.5" fill="#EBB57D"/>
</g>
<path d="M201.5 42.5C201.5 64.0006 183.854 81.5 162 81.5C140.146 81.5 122.5 64.0006 122.5 42.5C122.5 20.9994 140.146 3.5 162 3.5C183.854 3.5 201.5 20.9994 201.5 42.5Z" stroke="#561D0F" stroke-width="7"/>
<path d="M182.5 42.5C182.5 53.4942 173.374 62.5 162 62.5C150.626 62.5 141.5 53.4942 141.5 42.5C141.5 31.5058 150.626 22.5 162 22.5C173.374 22.5 182.5 31.5058 182.5 42.5Z" fill="#D69A77" stroke="#995434" stroke-width="5"/>
<g filter="url(#filter9_ii_220_1007)">
<path d="M187.74 102.5C187.74 145.854 148.905 181 101 181C53.0946 181 14.2596 145.854 14.2596 102.5C14.2596 59.1456 53.0946 24 101 24C148.905 24 187.74 59.1456 187.74 102.5Z" fill="#EBB57D"/>
</g>
<path d="M101 184.5C150.501 184.5 191.24 148.108 191.24 102.5C191.24 56.8921 150.501 20.5 101 20.5C51.4985 20.5 10.7596 56.8921 10.7596 102.5C10.7596 148.108 51.4985 184.5 101 184.5Z" stroke="#561D0F" stroke-width="7"/>
<ellipse cx="98.8315" cy="129.823" rx="31.6602" ry="24.2873" fill="white"/>
<path d="M86.2542 130.69C86.2542 135.461 99.2435 141.533 100.133 123.751C99.2652 141.099 112.71 135.461 112.71 130.69" stroke="#561D0F" stroke-width="7" stroke-linecap="round"/>
<path d="M108.807 119.848C108.807 123.441 104.729 126.354 99.6989 126.354C94.6688 126.354 90.5911 123.441 90.5911 119.848C90.5911 116.255 94.6688 113.343 99.6989 113.343C104.729 113.343 108.807 116.255 108.807 119.848Z" fill="#561D0F"/>
<ellipse cx="51.558" cy="112.909" rx="17.3481" ry="16.9144" fill="#561D0F"/>
<ellipse cx="51.558" cy="112.909" rx="17.3481" ry="16.9144" fill="#561D0F"/>
<path d="M59.7984 107.704C59.7984 110.339 57.6625 112.475 55.0277 112.475C52.3929 112.475 50.257 110.339 50.257 107.704C50.257 105.07 52.3929 102.934 55.0277 102.934C57.6625 102.934 59.7984 105.07 59.7984 107.704Z" fill="white"/>
<path d="M51.9254 133.726C51.9254 135.539 50.8016 137.245 48.8491 138.521C46.9009 139.795 44.18 140.599 41.1492 140.599C38.1183 140.599 35.3974 139.795 33.4493 138.521C31.4967 137.245 30.3729 135.539 30.3729 133.726C30.3729 131.914 31.4967 130.208 33.4493 128.931C35.3974 127.658 38.1183 126.854 41.1492 126.854C44.18 126.854 46.9009 127.658 48.8491 128.931C50.8016 130.208 51.9254 131.914 51.9254 133.726Z" fill="url(#paint1_linear_220_1007)" stroke="#D68E5B"/>
<ellipse cx="55.7705" cy="81.0322" rx="7.80663" ry="5.63812" transform="rotate(-8.43937 55.7705 81.0322)" fill="#561D0F"/>
<ellipse cx="149.575" cy="112.909" rx="17.3481" ry="16.9144" fill="#561D0F"/>
<ellipse cx="149.575" cy="112.909" rx="17.3481" ry="16.9144" fill="#561D0F"/>
<circle cx="146.539" cy="107.704" r="4.77072" fill="white"/>
<path d="M170.76 132.859C170.76 134.671 169.636 136.377 167.683 137.654C165.735 138.928 163.014 139.732 159.983 139.732C156.953 139.732 154.232 138.928 152.284 137.654C150.331 136.377 149.207 134.671 149.207 132.859C149.207 131.047 150.331 129.341 152.284 128.064C154.232 126.79 156.953 125.986 159.983 125.986C163.014 125.986 165.735 126.79 167.683 128.064C169.636 129.341 170.76 131.047 170.76 132.859Z" fill="url(#paint2_linear_220_1007)" stroke="#D68E5B"/>
<ellipse cx="146.699" cy="81.4178" rx="7.80663" ry="5.63812" transform="rotate(20.0826 146.699 81.4178)" fill="#561D0F"/>
<circle cx="100" cy="212" r="56" fill="#FFB0C8" stroke="#FF86AC" stroke-width="6"/>
<path d="M126.085 207.67C129.418 209.594 129.418 214.406 126.085 216.33L93.4308 235.183C90.0974 237.107 85.9307 234.702 85.9307 230.853V193.147C85.9307 189.298 90.0974 186.893 93.4307 188.817L126.085 207.67Z" fill="#FF578C"/>
<g filter="url(#filter10_ii_220_1007)">
<path d="M42.7729 197.608L28.0242 200.118C20.3597 201.422 15.1255 208.59 16.2157 216.288C17.3159 224.056 24.4475 229.503 32.2316 228.521L47.0746 226.647C55.2014 225.622 60.917 218.144 59.7742 210.033C58.6201 201.841 50.9286 196.22 42.7729 197.608Z" fill="#EBB57D"/>
</g>
<path d="M27.5208 197.161L42.2696 194.65C52.0918 192.979 61.3549 199.749 62.7449 209.615C64.1211 219.383 57.2376 228.388 47.4503 229.624L32.6072 231.497C23.1969 232.685 14.5755 226.1 13.2454 216.708C11.9273 207.402 18.2551 198.737 27.5208 197.161Z" stroke="#561D0F" stroke-width="6" stroke-linecap="round"/>
<g filter="url(#filter11_ii_220_1007)">
<path d="M169.027 201.836L154.481 198.337C146.922 196.518 139.289 201.046 137.26 208.551C135.213 216.125 139.624 223.94 147.166 226.102L161.548 230.224C169.422 232.481 177.62 227.858 179.763 219.952C181.928 211.967 177.071 203.771 169.027 201.836Z" fill="#EBB57D"/>
</g>
<path d="M155.183 195.42L169.729 198.919C179.416 201.25 185.266 211.12 182.659 220.737C180.078 230.258 170.205 235.826 160.721 233.108L146.34 228.986C137.222 226.372 131.889 216.925 134.364 207.768C136.817 198.695 146.045 193.221 155.183 195.42Z" stroke="#561D0F" stroke-width="6" stroke-linecap="round"/>
<defs>
<filter id="filter0_ii_220_1007" x="114.813" y="167.272" width="74.339" height="72.9355" filterUnits="userSpaceOnUse" color-interpolation-filters="sRGB">
<feFlood flood-opacity="0" result="BackgroundImageFix"/>
<feBlend mode="normal" in="SourceGraphic" in2="BackgroundImageFix" result="shape"/>
<feColorMatrix in="SourceAlpha" type="matrix" values="0 0 0 0 0 0 0 0 0 0 0 0 0 0 0 0 0 0 127 0" result="hardAlpha"/>
<feOffset dx="10" dy="20"/>
<feGaussianBlur stdDeviation="1"/>
<feComposite in2="hardAlpha" operator="arithmetic" k2="-1" k3="1"/>
<feColorMatrix type="matrix" values="0 0 0 0 0 0 0 0 0 0 0 0 0 0 0 0 0 0 0.25 0"/>
<feBlend mode="normal" in2="shape" result="effect1_innerShadow_220_1007"/>
<feColorMatrix in="SourceAlpha" type="matrix" values="0 0 0 0 0 0 0 0 0 0 0 0 0 0 0 0 0 0 127 0" result="hardAlpha"/>
<feOffset dx="5" dy="-15"/>
<feGaussianBlur stdDeviation="1"/>
<feComposite in2="hardAlpha" operator="arithmetic" k2="-1" k3="1"/>
<feColorMatrix type="matrix" values="0 0 0 0 0 0 0 0 0 0 0 0 0 0 0 0 0 0 0.25 0"/>
<feBlend mode="normal" in2="effect1_innerShadow_220_1007" result="effect2_innerShadow_220_1007"/>
</filter>
<filter id="filter1_ii_220_1007" x="6.66187" y="166.272" width="74.339" height="72.9355" filterUnits="userSpaceOnUse" color-interpolation-filters="sRGB">
<feFlood flood-opacity="0" result="BackgroundImageFix"/>
<feBlend mode="normal" in="SourceGraphic" in2="BackgroundImageFix" result="shape"/>
<feColorMatrix in="SourceAlpha" type="matrix" values="0 0 0 0 0 0 0 0 0 0 0 0 0 0 0 0 0 0 127 0" result="hardAlpha"/>
<feOffset dx="-10" dy="15"/>
<feGaussianBlur stdDeviation="1"/>
<feComposite in2="hardAlpha" operator="arithmetic" k2="-1" k3="1"/>
<feColorMatrix type="matrix" values="0 0 0 0 0 0 0 0 0 0 0 0 0 0 0 0 0 0 0.25 0"/>
<feBlend mode="normal" in2="shape" result="effect1_innerShadow_220_1007"/>
<feColorMatrix in="SourceAlpha" type="matrix" values="0 0 0 0 0 0 0 0 0 0 0 0 0 0 0 0 0 0 127 0" result="hardAlpha"/>
<feOffset dx="-5" dy="-15"/>
<feGaussianBlur stdDeviation="1"/>
<feComposite in2="hardAlpha" operator="arithmetic" k2="-1" k3="1"/>
<feColorMatrix type="matrix" values="0 0 0 0 0 0 0 0 0 0 0 0 0 0 0 0 0 0 0.25 0"/>
<feBlend mode="normal" in2="effect1_innerShadow_220_1007" result="effect2_innerShadow_220_1007"/>
</filter>
<filter id="filter2_ii_220_1007" x="36.9495" y="240" width="59.9666" height="67" filterUnits="userSpaceOnUse" color-interpolation-filters="sRGB">
<feFlood flood-opacity="0" result="BackgroundImageFix"/>
<feBlend mode="normal" in="SourceGraphic" in2="BackgroundImageFix" result="shape"/>
<feColorMatrix in="SourceAlpha" type="matrix" values="0 0 0 0 0 0 0 0 0 0 0 0 0 0 0 0 0 0 127 0" result="hardAlpha"/>
<feOffset dx="-3" dy="30"/>
<feGaussianBlur stdDeviation="1"/>
<feComposite in2="hardAlpha" operator="arithmetic" k2="-1" k3="1"/>
<feColorMatrix type="matrix" values="0 0 0 0 0 0 0 0 0 0 0 0 0 0 0 0 0 0 0.25 0"/>
<feBlend mode="normal" in2="shape" result="effect1_innerShadow_220_1007"/>
<feColorMatrix in="SourceAlpha" type="matrix" values="0 0 0 0 0 0 0 0 0 0 0 0 0 0 0 0 0 0 127 0" result="hardAlpha"/>
<feOffset dx="-5" dy="-10"/>
<feGaussianBlur stdDeviation="1"/>
<feComposite in2="hardAlpha" operator="arithmetic" k2="-1" k3="1"/>
<feColorMatrix type="matrix" values="0 0 0 0 0 0 0 0 0 0 0 0 0 0 0 0 0 0 0.25 0"/>
<feBlend mode="normal" in2="effect1_innerShadow_220_1007" result="effect2_innerShadow_220_1007"/>
</filter>
<filter id="filter3_ii_220_1007" x="98.8868" y="240" width="62.13" height="69" filterUnits="userSpaceOnUse" color-interpolation-filters="sRGB">
<feFlood flood-opacity="0" result="BackgroundImageFix"/>
<feBlend mode="normal" in="SourceGraphic" in2="BackgroundImageFix" result="shape"/>
<feColorMatrix in="SourceAlpha" type="matrix" values="0 0 0 0 0 0 0 0 0 0 0 0 0 0 0 0 0 0 127 0" result="hardAlpha"/>
<feOffset dx="-3" dy="30"/>
<feGaussianBlur stdDeviation="1"/>
<feComposite in2="hardAlpha" operator="arithmetic" k2="-1" k3="1"/>
<feColorMatrix type="matrix" values="0 0 0 0 0 0 0 0 0 0 0 0 0 0 0 0 0 0 0.25 0"/>
<feBlend mode="normal" in2="shape" result="effect1_innerShadow_220_1007"/>
<feColorMatrix in="SourceAlpha" type="matrix" values="0 0 0 0 0 0 0 0 0 0 0 0 0 0 0 0 0 0 127 0" result="hardAlpha"/>
<feOffset dx="5" dy="-10"/>
<feGaussianBlur stdDeviation="1"/>
<feComposite in2="hardAlpha" operator="arithmetic" k2="-1" k3="1"/>
<feColorMatrix type="matrix" values="0 0 0 0 0 0 0 0 0 0 0 0 0 0 0 0 0 0 0.25 0"/>
<feBlend mode="normal" in2="effect1_innerShadow_220_1007" result="effect2_innerShadow_220_1007"/>
</filter>
<filter id="filter4_i_220_1007" x="80.7366" y="179" width="40.6561" height="22" filterUnits="userSpaceOnUse" color-interpolation-filters="sRGB">
<feFlood flood-opacity="0" result="BackgroundImageFix"/>
<feBlend mode="normal" in="SourceGraphic" in2="BackgroundImageFix" result="shape"/>
<feColorMatrix in="SourceAlpha" type="matrix" values="0 0 0 0 0 0 0 0 0 0 0 0 0 0 0 0 0 0 127 0" result="hardAlpha"/>
<feOffset dx="-3" dy="30"/>
<feGaussianBlur stdDeviation="1"/>
<feComposite in2="hardAlpha" operator="arithmetic" k2="-1" k3="1"/>
<feColorMatrix type="matrix" values="0 0 0 0 0 0 0 0 0 0 0 0 0 0 0 0 0 0 0.25 0"/>
<feBlend mode="normal" in2="shape" result="effect1_innerShadow_220_1007"/>
</filter>
<filter id="filter5_i_220_1007" x="80.1807" y="220" width="34.9556" height="31" filterUnits="userSpaceOnUse" color-interpolation-filters="sRGB">
<feFlood flood-opacity="0" result="BackgroundImageFix"/>
<feBlend mode="normal" in="SourceGraphic" in2="BackgroundImageFix" result="shape"/>
<feColorMatrix in="SourceAlpha" type="matrix" values="0 0 0 0 0 0 0 0 0 0 0 0 0 0 0 0 0 0 127 0" result="hardAlpha"/>
<feOffset dx="-5" dy="-5"/>
<feGaussianBlur stdDeviation="1"/>
<feComposite in2="hardAlpha" operator="arithmetic" k2="-1" k3="1"/>
<feColorMatrix type="matrix" values="0 0 0 0 0 0 0 0 0 0 0 0 0 0 0 0 0 0 0.25 0"/>
<feBlend mode="normal" in2="shape" result="effect1_innerShadow_220_1007"/>
</filter>
<filter id="filter6_i_220_1007" x="87.0001" y="223" width="23" height="7" filterUnits="userSpaceOnUse" color-interpolation-filters="sRGB">
<feFlood flood-opacity="0" result="BackgroundImageFix"/>
<feBlend mode="normal" in="SourceGraphic" in2="BackgroundImageFix" result="shape"/>
<feColorMatrix in="SourceAlpha" type="matrix" values="0 0 0 0 0 0 0 0 0 0 0 0 0 0 0 0 0 0 127 0" result="hardAlpha"/>
<feOffset dx="-2" dy="2"/>
<feComposite in2="hardAlpha" operator="arithmetic" k2="-1" k3="1"/>
<feColorMatrix type="matrix" values="0 0 0 0 1 0 0 0 0 1 0 0 0 0 1 0 0 0 1 0"/>
<feBlend mode="normal" in2="shape" result="effect1_innerShadow_220_1007"/>
</filter>
<filter id="filter7_ii_220_1007" x="-2" y="-2" width="88" height="89" filterUnits="userSpaceOnUse" color-interpolation-filters="sRGB">
<feFlood flood-opacity="0" result="BackgroundImageFix"/>
<feBlend mode="normal" in="SourceGraphic" in2="BackgroundImageFix" result="shape"/>
<feColorMatrix in="SourceAlpha" type="matrix" values="0 0 0 0 0 0 0 0 0 0 0 0 0 0 0 0 0 0 127 0" result="hardAlpha"/>
<feOffset dy="-15"/>
<feGaussianBlur stdDeviation="1"/>
<feComposite in2="hardAlpha" operator="arithmetic" k2="-1" k3="1"/>
<feColorMatrix type="matrix" values="0 0 0 0 0 0 0 0 0 0 0 0 0 0 0 0 0 0 0.16 0"/>
<feBlend mode="normal" in2="shape" result="effect1_innerShadow_220_1007"/>
<feColorMatrix in="SourceAlpha" type="matrix" values="0 0 0 0 0 0 0 0 0 0 0 0 0 0 0 0 0 0 127 0" result="hardAlpha"/>
<feOffset dx="-5" dy="15"/>
<feGaussianBlur stdDeviation="1"/>
<feComposite in2="hardAlpha" operator="arithmetic" k2="-1" k3="1"/>
<feColorMatrix type="matrix" values="0 0 0 0 1 0 0 0 0 1 0 0 0 0 1 0 0 0 1 0"/>
<feBlend mode="normal" in2="effect1_innerShadow_220_1007" result="effect2_innerShadow_220_1007"/>
</filter>
<filter id="filter8_ii_220_1007" x="117" y="-2" width="88" height="89" filterUnits="userSpaceOnUse" color-interpolation-filters="sRGB">
<feFlood flood-opacity="0" result="BackgroundImageFix"/>
<feBlend mode="normal" in="SourceGraphic" in2="BackgroundImageFix" result="shape"/>
<feColorMatrix in="SourceAlpha" type="matrix" values="0 0 0 0 0 0 0 0 0 0 0 0 0 0 0 0 0 0 127 0" result="hardAlpha"/>
<feOffset dy="-15"/>
<feGaussianBlur stdDeviation="1"/>
<feComposite in2="hardAlpha" operator="arithmetic" k2="-1" k3="1"/>
<feColorMatrix type="matrix" values="0 0 0 0 0 0 0 0 0 0 0 0 0 0 0 0 0 0 0.16 0"/>
<feBlend mode="normal" in2="shape" result="effect1_innerShadow_220_1007"/>
<feColorMatrix in="SourceAlpha" type="matrix" values="0 0 0 0 0 0 0 0 0 0 0 0 0 0 0 0 0 0 127 0" result="hardAlpha"/>
<feOffset dx="-5" dy="15"/>
<feGaussianBlur stdDeviation="1"/>
<feComposite in2="hardAlpha" operator="arithmetic" k2="-1" k3="1"/>
<feColorMatrix type="matrix" values="0 0 0 0 1 0 0 0 0 1 0 0 0 0 1 0 0 0 1 0"/>
<feBlend mode="normal" in2="effect1_innerShadow_220_1007" result="effect2_innerShadow_220_1007"/>
</filter>
<filter id="filter9_ii_220_1007" x="5.25964" y="15" width="189.481" height="175" filterUnits="userSpaceOnUse" color-interpolation-filters="sRGB">
<feFlood flood-opacity="0" result="BackgroundImageFix"/>
<feBlend mode="normal" in="SourceGraphic" in2="BackgroundImageFix" result="shape"/>
<feColorMatrix in="SourceAlpha" type="matrix" values="0 0 0 0 0 0 0 0 0 0 0 0 0 0 0 0 0 0 127 0" result="hardAlpha"/>
<feOffset dy="-15"/>
<feGaussianBlur stdDeviation="1"/>
<feComposite in2="hardAlpha" operator="arithmetic" k2="-1" k3="1"/>
<feColorMatrix type="matrix" values="0 0 0 0 0 0 0 0 0 0 0 0 0 0 0 0 0 0 0.16 0"/>
<feBlend mode="normal" in2="shape" result="effect1_innerShadow_220_1007"/>
<feColorMatrix in="SourceAlpha" type="matrix" values="0 0 0 0 0 0 0 0 0 0 0 0 0 0 0 0 0 0 127 0" result="hardAlpha"/>
<feOffset dx="-5" dy="15"/>
<feGaussianBlur stdDeviation="1"/>
<feComposite in2="hardAlpha" operator="arithmetic" k2="-1" k3="1"/>
<feColorMatrix type="matrix" values="0 0 0 0 1 0 0 0 0 1 0 0 0 0 1 0 0 0 1 0"/>
<feBlend mode="normal" in2="effect1_innerShadow_220_1007" result="effect2_innerShadow_220_1007"/>
</filter>
<filter id="filter10_ii_220_1007" x="8.07141" y="189.396" width="57.8491" height="47.2397" filterUnits="userSpaceOnUse" color-interpolation-filters="sRGB">
<feFlood flood-opacity="0" result="BackgroundImageFix"/>
<feBlend mode="normal" in="SourceGraphic" in2="BackgroundImageFix" result="shape"/>
<feColorMatrix in="SourceAlpha" type="matrix" values="0 0 0 0 0 0 0 0 0 0 0 0 0 0 0 0 0 0 127 0" result="hardAlpha"/>
<feOffset dx="-10" dy="5"/>
<feGaussianBlur stdDeviation="1"/>
<feComposite in2="hardAlpha" operator="arithmetic" k2="-1" k3="1"/>
<feColorMatrix type="matrix" values="0 0 0 0 0 0 0 0 0 0 0 0 0 0 0 0 0 0 0.25 0"/>
<feBlend mode="normal" in2="shape" result="effect1_innerShadow_220_1007"/>
<feColorMatrix in="SourceAlpha" type="matrix" values="0 0 0 0 0 0 0 0 0 0 0 0 0 0 0 0 0 0 127 0" result="hardAlpha"/>
<feOffset dx="-5" dy="-15"/>
<feGaussianBlur stdDeviation="1"/>
<feComposite in2="hardAlpha" operator="arithmetic" k2="-1" k3="1"/>
<feColorMatrix type="matrix" values="0 0 0 0 0 0 0 0 0 0 0 0 0 0 0 0 0 0 0.25 0"/>
<feBlend mode="normal" in2="effect1_innerShadow_220_1007" result="effect2_innerShadow_220_1007"/>
</filter>
<filter id="filter11_ii_220_1007" x="128.758" y="189.934" width="57.5222" height="48.8635" filterUnits="userSpaceOnUse" color-interpolation-filters="sRGB">
<feFlood flood-opacity="0" result="BackgroundImageFix"/>
<feBlend mode="normal" in="SourceGraphic" in2="BackgroundImageFix" result="shape"/>
<feColorMatrix in="SourceAlpha" type="matrix" values="0 0 0 0 0 0 0 0 0 0 0 0 0 0 0 0 0 0 127 0" result="hardAlpha"/>
<feOffset dx="-10" dy="5"/>
<feGaussianBlur stdDeviation="1"/>
<feComposite in2="hardAlpha" operator="arithmetic" k2="-1" k3="1"/>
<feColorMatrix type="matrix" values="0 0 0 0 0 0 0 0 0 0 0 0 0 0 0 0 0 0 0.25 0"/>
<feBlend mode="normal" in2="shape" result="effect1_innerShadow_220_1007"/>
<feColorMatrix in="SourceAlpha" type="matrix" values="0 0 0 0 0 0 0 0 0 0 0 0 0 0 0 0 0 0 127 0" result="hardAlpha"/>
<feOffset dx="-5" dy="-15"/>
<feGaussianBlur stdDeviation="1"/>
<feComposite in2="hardAlpha" operator="arithmetic" k2="-1" k3="1"/>
<feColorMatrix type="matrix" values="0 0 0 0 0 0 0 0 0 0 0 0 0 0 0 0 0 0 0.25 0"/>
<feBlend mode="normal" in2="effect1_innerShadow_220_1007" result="effect2_innerShadow_220_1007"/>
</filter>
<linearGradient id="paint0_linear_220_1007" x1="98.8851" y1="229.492" x2="98.8851" y2="223.586" gradientUnits="userSpaceOnUse">
<stop offset="0.21" stop-color="#BB4B30"/>
<stop offset="1" stop-color="#552216"/>
</linearGradient>
<linearGradient id="paint1_linear_220_1007" x1="41.1492" y1="126.354" x2="41.1492" y2="141.099" gradientUnits="userSpaceOnUse">
<stop stop-color="#DC8F73"/>
<stop offset="1" stop-color="#BE6F52"/>
</linearGradient>
<linearGradient id="paint2_linear_220_1007" x1="159.983" y1="125.486" x2="159.983" y2="140.232" gradientUnits="userSpaceOnUse">
<stop stop-color="#DC8F73"/>
<stop offset="1" stop-color="#BE6F52"/>
</linearGradient>
</defs>
</svg>
