<svg width="158" height="160" viewBox="0 0 158 160" fill="none" xmlns="http://www.w3.org/2000/svg">
<path d="M155 80C155 122.562 120.938 157 79 157C37.0618 157 3 122.562 3 80C3 37.4384 37.0618 3 79 3C120.938 3 155 37.4384 155 80Z" fill="#EBB57D" stroke="#995434" stroke-width="6"/>
<mask id="path-2-outside-1_231_1068" maskUnits="userSpaceOnUse" x="48" y="27" width="59" height="107" fill="black">
<rect fill="white" x="48" y="27" width="59" height="107"/>
<path d="M50.192 58.8C49.8507 56.5813 49.68 54.32 49.68 52.016C49.7653 49.712 50.192 47.4507 50.96 45.232C51.8987 42.3307 53.4347 39.7707 55.568 37.552C57.7013 35.3333 60.1333 33.584 62.864 32.304C65.7653 30.9387 68.7093 30 71.696 29.488C74.768 28.8907 77.7547 28.7627 80.656 29.104C83.6427 29.4453 86.5013 30.2133 89.232 31.408C92.048 32.5173 94.6933 34.1387 97.168 36.272C99.8133 38.576 101.776 41.264 103.056 44.336C104.421 47.3227 105.147 50.4373 105.232 53.68C105.403 56.9227 105.019 60.1653 104.08 63.408C103.227 66.5653 101.904 69.5093 100.112 72.24C100.112 72.24 100.069 72.3253 99.984 72.496C98.5333 74.4587 96.8693 76.2507 94.992 77.872C93.1147 79.408 91.3653 81.072 89.744 82.864C87.8667 84.8267 86.7573 86.832 86.416 88.88C86.0747 90.8427 85.7333 93.0613 85.392 95.536C85.136 97.9253 84.496 100.016 83.472 101.808C82.5333 103.515 80.7413 104.325 78.096 104.24C76.304 104.155 74.9387 103.6 74 102.576C73.1467 101.467 72.5067 100.187 72.08 98.736C71.7387 97.2 71.6107 95.6213 71.696 94C71.7813 92.2933 71.9093 90.8 72.08 89.52C72.592 86.5333 73.5307 83.7173 74.896 81.072C76.2613 78.3413 77.9253 75.7813 79.888 73.392C80.9973 72.112 82.1067 70.96 83.216 69.936C84.3253 68.8267 85.3493 67.6747 86.288 66.48C87.2267 65.2853 88.0373 64.0053 88.72 62.64C89.4027 61.2747 89.872 59.696 90.128 57.904C90.384 56.2827 90.256 54.6613 89.744 53.04C89.232 51.3333 88.464 49.84 87.44 48.56C86.416 47.1947 85.1787 46.0853 83.728 45.232C82.2773 44.2933 80.6987 43.7813 78.992 43.696C77.456 43.6107 75.8347 43.824 74.128 44.336C72.4213 44.7627 70.8427 45.488 69.392 46.512C67.9413 47.4507 66.7467 48.6027 65.808 49.968C64.9547 51.3333 64.5707 52.8693 64.656 54.576C64.7413 55.6 64.912 56.6667 65.168 57.776C65.5093 58.8 65.7227 59.824 65.808 60.848C65.9787 61.7867 65.936 62.7253 65.68 63.664C65.5093 64.6027 64.9547 65.4987 64.016 66.352C62.48 67.8027 60.944 68.528 59.408 68.528C57.872 68.4427 56.464 67.9307 55.184 66.992C53.904 66.0533 52.7947 64.8587 51.856 63.408C51.0027 61.872 50.448 60.336 50.192 58.8ZM87.056 122.672C87.056 125.147 86.1173 127.365 84.24 129.328C82.448 131.205 80.3573 132.144 77.968 132.144C75.664 132.144 73.616 131.205 71.824 129.328C70.032 127.28 69.136 125.061 69.136 122.672C69.136 120.027 70.032 117.808 71.824 116.016C73.616 114.053 75.664 113.072 77.968 113.072C80.3573 113.072 82.448 114.053 84.24 116.016C86.1173 117.893 87.056 120.112 87.056 122.672Z"/>
</mask>
<path d="M50.192 58.8C49.8507 56.5813 49.68 54.32 49.68 52.016C49.7653 49.712 50.192 47.4507 50.96 45.232C51.8987 42.3307 53.4347 39.7707 55.568 37.552C57.7013 35.3333 60.1333 33.584 62.864 32.304C65.7653 30.9387 68.7093 30 71.696 29.488C74.768 28.8907 77.7547 28.7627 80.656 29.104C83.6427 29.4453 86.5013 30.2133 89.232 31.408C92.048 32.5173 94.6933 34.1387 97.168 36.272C99.8133 38.576 101.776 41.264 103.056 44.336C104.421 47.3227 105.147 50.4373 105.232 53.68C105.403 56.9227 105.019 60.1653 104.08 63.408C103.227 66.5653 101.904 69.5093 100.112 72.24C100.112 72.24 100.069 72.3253 99.984 72.496C98.5333 74.4587 96.8693 76.2507 94.992 77.872C93.1147 79.408 91.3653 81.072 89.744 82.864C87.8667 84.8267 86.7573 86.832 86.416 88.88C86.0747 90.8427 85.7333 93.0613 85.392 95.536C85.136 97.9253 84.496 100.016 83.472 101.808C82.5333 103.515 80.7413 104.325 78.096 104.24C76.304 104.155 74.9387 103.6 74 102.576C73.1467 101.467 72.5067 100.187 72.08 98.736C71.7387 97.2 71.6107 95.6213 71.696 94C71.7813 92.2933 71.9093 90.8 72.08 89.52C72.592 86.5333 73.5307 83.7173 74.896 81.072C76.2613 78.3413 77.9253 75.7813 79.888 73.392C80.9973 72.112 82.1067 70.96 83.216 69.936C84.3253 68.8267 85.3493 67.6747 86.288 66.48C87.2267 65.2853 88.0373 64.0053 88.72 62.64C89.4027 61.2747 89.872 59.696 90.128 57.904C90.384 56.2827 90.256 54.6613 89.744 53.04C89.232 51.3333 88.464 49.84 87.44 48.56C86.416 47.1947 85.1787 46.0853 83.728 45.232C82.2773 44.2933 80.6987 43.7813 78.992 43.696C77.456 43.6107 75.8347 43.824 74.128 44.336C72.4213 44.7627 70.8427 45.488 69.392 46.512C67.9413 47.4507 66.7467 48.6027 65.808 49.968C64.9547 51.3333 64.5707 52.8693 64.656 54.576C64.7413 55.6 64.912 56.6667 65.168 57.776C65.5093 58.8 65.7227 59.824 65.808 60.848C65.9787 61.7867 65.936 62.7253 65.68 63.664C65.5093 64.6027 64.9547 65.4987 64.016 66.352C62.48 67.8027 60.944 68.528 59.408 68.528C57.872 68.4427 56.464 67.9307 55.184 66.992C53.904 66.0533 52.7947 64.8587 51.856 63.408C51.0027 61.872 50.448 60.336 50.192 58.8ZM87.056 122.672C87.056 125.147 86.1173 127.365 84.24 129.328C82.448 131.205 80.3573 132.144 77.968 132.144C75.664 132.144 73.616 131.205 71.824 129.328C70.032 127.28 69.136 125.061 69.136 122.672C69.136 120.027 70.032 117.808 71.824 116.016C73.616 114.053 75.664 113.072 77.968 113.072C80.3573 113.072 82.448 114.053 84.24 116.016C86.1173 117.893 87.056 120.112 87.056 122.672Z" fill="#995434"/>
<path d="M50.192 58.8L49.2036 58.9521L49.2056 58.9644L50.192 58.8ZM49.68 52.016L48.6807 51.979L48.68 51.9975V52.016H49.68ZM50.96 45.232L51.905 45.5591L51.9083 45.5495L51.9114 45.5398L50.96 45.232ZM55.568 37.552L54.8472 36.8589L54.8472 36.8589L55.568 37.552ZM62.864 32.304L63.2884 33.2095L63.2898 33.2088L62.864 32.304ZM71.696 29.488L71.865 30.4736L71.8759 30.4717L71.8869 30.4696L71.696 29.488ZM80.656 29.104L80.5392 30.0972L80.5425 30.0975L80.656 29.104ZM89.232 31.408L88.8312 32.3242L88.8482 32.3316L88.8655 32.3384L89.232 31.408ZM97.168 36.272L97.8248 35.5179L97.8209 35.5146L97.168 36.272ZM103.056 44.336L102.133 44.7206L102.139 44.7363L102.147 44.7518L103.056 44.336ZM105.232 53.68L104.232 53.7063L104.233 53.7194L104.233 53.7326L105.232 53.68ZM104.08 63.408L103.119 63.1299L103.117 63.1385L103.115 63.1471L104.08 63.408ZM100.112 72.24L99.276 71.6913L99.2438 71.7403L99.2176 71.7928L100.112 72.24ZM99.984 72.496L100.788 73.0904L100.84 73.0207L100.878 72.9432L99.984 72.496ZM94.992 77.872L95.6252 78.646L95.6355 78.6375L95.6456 78.6288L94.992 77.872ZM89.744 82.864L90.4666 83.5552L90.4762 83.5452L90.4855 83.5349L89.744 82.864ZM86.416 88.88L87.4012 89.0513L87.4024 89.0444L86.416 88.88ZM85.392 95.536L84.4014 95.3994L84.3993 95.4144L84.3977 95.4295L85.392 95.536ZM83.472 101.808L82.6038 101.312L82.5997 101.319L82.5958 101.326L83.472 101.808ZM78.096 104.24L78.0484 105.239L78.0561 105.239L78.0638 105.239L78.096 104.24ZM74 102.576L73.2074 103.186L73.2337 103.22L73.2628 103.252L74 102.576ZM72.08 98.736L71.1038 98.9529L71.1111 98.9858L71.1206 99.0182L72.08 98.736ZM71.696 94L72.6946 94.0526L72.6948 94.0499L71.696 94ZM72.08 89.52L71.0944 89.351L71.0912 89.3694L71.0888 89.3878L72.08 89.52ZM74.896 81.072L75.7847 81.5307L75.7904 81.5192L74.896 81.072ZM79.888 73.392L79.1323 72.7371L79.1237 72.7471L79.1153 72.7573L79.888 73.392ZM83.216 69.936L83.8943 70.6708L83.909 70.6572L83.9231 70.6431L83.216 69.936ZM88.72 62.64L87.8256 62.1928L87.8256 62.1928L88.72 62.64ZM90.128 57.904L89.1402 57.748L89.1391 57.7553L89.1381 57.7626L90.128 57.904ZM89.744 53.04L88.7862 53.3273L88.7882 53.3342L88.7904 53.3411L89.744 53.04ZM87.44 48.56L86.64 49.16L86.6494 49.1725L86.6591 49.1847L87.44 48.56ZM83.728 45.232L83.1847 46.0716L83.2026 46.0831L83.221 46.0939L83.728 45.232ZM78.992 43.696L78.9365 44.6945L78.9421 44.6948L78.992 43.696ZM74.128 44.336L74.3705 45.3061L74.3931 45.3005L74.4154 45.2938L74.128 44.336ZM69.392 46.512L69.9353 47.3516L69.9522 47.3406L69.9687 47.329L69.392 46.512ZM65.808 49.968L64.984 49.4015L64.9716 49.4195L64.96 49.438L65.808 49.968ZM64.656 54.576L63.6572 54.6259L63.6581 54.6425L63.6595 54.659L64.656 54.576ZM65.168 57.776L64.1936 58.0009L64.2043 58.0471L64.2193 58.0922L65.168 57.776ZM65.808 60.848L64.8115 60.931L64.8155 60.9793L64.8241 61.0269L65.808 60.848ZM65.68 63.664L64.7152 63.4009L64.7039 63.4426L64.6961 63.4851L65.68 63.664ZM64.016 66.352L63.3433 65.6121L63.3363 65.6185L63.3294 65.625L64.016 66.352ZM59.408 68.528L59.3525 69.5265L59.3802 69.528H59.408V68.528ZM51.856 63.408L50.9818 63.8936L50.9982 63.923L51.0164 63.9512L51.856 63.408ZM84.24 129.328L83.5174 128.637L83.5166 128.638L84.24 129.328ZM71.824 129.328L71.0714 129.987L71.0857 130.003L71.1006 130.018L71.824 129.328ZM71.824 116.016L72.5311 116.723L72.5472 116.707L72.5625 116.69L71.824 116.016ZM84.24 116.016L83.5015 116.69L83.5168 116.707L83.5329 116.723L84.24 116.016ZM51.1804 58.6479C50.847 56.4809 50.68 54.2704 50.68 52.016H48.68C48.68 54.3696 48.8544 56.6818 49.2036 58.9521L51.1804 58.6479ZM50.6793 52.053C50.7609 49.8497 51.1687 47.686 51.905 45.5591L50.015 44.9049C49.2153 47.2153 48.7697 49.5743 48.6807 51.979L50.6793 52.053ZM51.9114 45.5398C52.803 42.7841 54.2596 40.3555 56.2888 38.2451L54.8472 36.8589C52.6098 39.1858 50.9943 41.8772 50.0086 44.9242L51.9114 45.5398ZM56.2888 38.2451C58.339 36.1129 60.6711 34.4364 63.2884 33.2095L62.4396 31.3985C59.5956 32.7316 57.0637 34.5537 54.8472 36.8589L56.2888 38.2451ZM63.2898 33.2088C66.1143 31.8796 68.9722 30.9695 71.865 30.4736L71.527 28.5024C68.4465 29.0305 65.4164 29.9977 62.4382 31.3992L63.2898 33.2088ZM71.8869 30.4696C74.8647 29.8906 77.7474 29.7687 80.5392 30.0971L80.7728 28.1108C77.7619 27.7566 74.6713 27.8907 71.5051 28.5064L71.8869 30.4696ZM80.5425 30.0975C83.4309 30.4276 86.1927 31.1698 88.8312 32.3242L89.6328 30.4918C86.81 29.2569 83.8544 28.463 80.7695 28.1105L80.5425 30.0975ZM88.8655 32.3384C91.569 33.4034 94.1187 34.9636 96.5151 37.0294L97.8209 35.5146C95.268 33.3137 92.527 31.6312 89.5985 30.4776L88.8655 32.3384ZM96.5112 37.0261C99.047 39.2347 100.915 41.7983 102.133 44.7206L103.979 43.9514C102.637 40.7297 100.58 37.9173 97.8248 35.5179L96.5112 37.0261ZM102.147 44.7518C103.457 47.6176 104.151 50.5999 104.232 53.7063L106.232 53.6537C106.143 50.2748 105.386 47.0278 103.965 43.9202L102.147 44.7518ZM104.233 53.7326C104.398 56.8593 104.028 59.9903 103.119 63.1299L105.041 63.6861C106.009 60.3404 106.407 56.986 106.231 53.6274L104.233 53.7326ZM103.115 63.1471C102.289 66.2024 101.01 69.0493 99.276 71.6913L100.948 72.7887C102.798 69.9694 104.164 66.9283 105.045 63.6689L103.115 63.1471ZM100.112 72.24C99.2176 71.7928 99.2176 71.7928 99.2176 71.7928C99.2176 71.7928 99.2176 71.7928 99.2176 71.7928C99.2176 71.7928 99.2176 71.7928 99.2176 71.7928C99.2176 71.7928 99.2176 71.7928 99.2176 71.7928C99.2176 71.7928 99.2176 71.7928 99.2176 71.7928C99.2175 71.7929 99.2176 71.7928 99.2175 71.7928C99.2175 71.793 99.2176 71.7928 99.2175 71.7929C99.2175 71.7929 99.2175 71.793 99.2175 71.793C99.2174 71.7932 99.2175 71.7929 99.2174 71.7931C99.2174 71.7932 99.2174 71.7931 99.2174 71.7932C99.2174 71.7932 99.2174 71.7932 99.2174 71.7932C99.2174 71.7932 99.2173 71.7932 99.2173 71.7933C99.2173 71.7934 99.2174 71.7932 99.2173 71.7933C99.217 71.794 99.2174 71.7931 99.2171 71.7938C99.2158 71.7964 99.2179 71.7922 99.2165 71.795C99.2152 71.7975 99.2169 71.7941 99.2156 71.7968C99.2156 71.7968 99.2155 71.7969 99.2155 71.7969C99.2155 71.7969 99.2155 71.797 99.2155 71.797C99.2154 71.7971 99.2154 71.7971 99.2154 71.7972C99.2154 71.7972 99.2153 71.7973 99.2153 71.7973C99.2146 71.7987 99.2158 71.7964 99.215 71.7978C99.2143 71.7994 99.2156 71.7968 99.2148 71.7984C99.2146 71.7988 99.2148 71.7983 99.2146 71.7987C99.2146 71.7988 99.2146 71.7988 99.2145 71.7989C99.2145 71.7989 99.2145 71.799 99.2145 71.799C99.2144 71.7991 99.2144 71.7991 99.2144 71.7992C99.2143 71.7992 99.2143 71.7993 99.2143 71.7993C99.2143 71.7994 99.2142 71.7995 99.2142 71.7995C99.2142 71.7996 99.2142 71.7996 99.2141 71.7997C99.2132 71.8015 99.2147 71.7985 99.2138 71.8003C99.2136 71.8008 99.2138 71.8002 99.2136 71.8007C99.2136 71.8007 99.2136 71.8008 99.2135 71.8009C99.2135 71.8009 99.2135 71.801 99.2134 71.801C99.2134 71.8011 99.2134 71.8012 99.2134 71.8012C99.2133 71.8013 99.2133 71.8013 99.2133 71.8014C99.2128 71.8024 99.2136 71.8008 99.2131 71.8018C99.2081 71.8118 99.2149 71.7981 99.2096 71.8088C99.2043 71.8194 99.2129 71.8022 99.2075 71.813C99.2042 71.8195 99.2084 71.8111 99.2051 71.8178C99.2034 71.8211 99.2055 71.817 99.2038 71.8203C99.2001 71.8276 99.2061 71.8157 99.2025 71.823C99.1988 71.8304 99.2033 71.8213 99.1996 71.8288C99.1796 71.8688 99.2069 71.8141 99.1856 71.8568C99.1642 71.8994 99.1987 71.8305 99.1771 71.8738C99.1507 71.9265 99.1943 71.8394 99.1676 71.8928C99.1659 71.8961 99.168 71.892 99.1663 71.8953C99.1629 71.9021 99.1685 71.891 99.165 71.8978C99.1582 71.9115 99.1693 71.8893 99.1625 71.903C99.1553 71.9173 99.167 71.894 99.1598 71.9083C99.158 71.9119 99.1602 71.9075 99.1584 71.911C99.1548 71.9184 99.1607 71.9064 99.1571 71.9138C99.1552 71.9174 99.1582 71.9115 99.1564 71.9152C99.1555 71.917 99.1566 71.9147 99.1557 71.9165C99.1556 71.9168 99.1555 71.917 99.1553 71.9172C99.1552 71.9175 99.1551 71.9177 99.155 71.9179C99.1549 71.9182 99.1548 71.9184 99.1546 71.9186C99.1545 71.9189 99.1544 71.9191 99.1543 71.9193C99.1543 71.9193 99.1529 71.9222 99.1529 71.9222C99.151 71.926 99.1541 71.9198 99.1522 71.9236C99.1521 71.9238 99.1519 71.9241 99.1518 71.9243C99.1517 71.9246 99.1516 71.9248 99.1515 71.925C99.1495 71.9289 99.1519 71.9241 99.15 71.9279C99.1461 71.9358 99.1525 71.923 99.1485 71.9308C99.1446 71.9387 99.1495 71.9289 99.1456 71.9368C99.1207 71.9866 99.1645 71.899 99.1395 71.949C99.1384 71.9511 99.1397 71.9485 99.1387 71.9506C99.1376 71.9527 99.1389 71.9501 99.1379 71.9522C99.1358 71.9564 99.1384 71.9511 99.1363 71.9553C99.1362 71.9556 99.136 71.9559 99.1359 71.9561C99.1358 71.9564 99.1356 71.9567 99.1355 71.9569C99.1354 71.9572 99.1352 71.9575 99.1351 71.9577C99.135 71.958 99.1348 71.9583 99.1347 71.9585C99.1326 71.9628 99.136 71.9559 99.1339 71.9602C99.1317 71.9645 99.1352 71.9574 99.1331 71.9618C99.1157 71.9964 99.1439 71.9402 99.1265 71.975C99.1172 71.9935 99.1289 71.9701 99.1196 71.9888C99.1009 72.0261 99.1241 71.9798 99.1051 72.0178C99.0841 72.0598 99.1109 72.0061 99.0896 72.0488L100.878 72.9432C100.921 72.8578 100.953 72.7939 100.974 72.7512C100.985 72.7299 100.993 72.7139 100.998 72.7032C101.001 72.6979 101.003 72.6939 101.004 72.6912C101.005 72.6899 101.006 72.6889 101.006 72.6882C101.006 72.6877 101.006 72.6879 101.006 72.6875C101.006 72.6874 101.006 72.6874 101.006 72.6874C101.006 72.6873 101.006 72.6875 101.006 72.6874C101.006 72.6873 101.006 72.6874 101.006 72.6873C101.006 72.6873 101.006 72.6873 101.006 72.6873C101.006 72.6873 101.006 72.6873 101.006 72.6873C101.006 72.6873 101.006 72.6872 101.006 72.6872C101.006 72.6872 101.006 72.6872 101.006 72.6872C101.006 72.6872 101.006 72.6872 101.006 72.6872C101.006 72.6872 101.006 72.6872 100.112 72.24ZM99.1798 71.9016C97.7739 73.8038 96.1606 75.5414 94.3384 77.1152L95.6456 78.6288C97.5781 76.9599 99.2928 75.1136 100.788 73.0904L99.1798 71.9016ZM94.3588 77.098C92.443 78.6655 90.6574 80.3639 89.0025 82.1931L90.4855 83.5349C92.0733 81.7801 93.7864 80.1505 95.6252 78.646L94.3588 77.098ZM89.0214 82.1728C87.0475 84.2364 85.8128 86.4167 85.4296 88.7156L87.4024 89.0444C87.7019 87.2473 88.6858 85.417 90.4666 83.5552L89.0214 82.1728ZM85.4308 88.7087C85.087 90.6853 84.7439 92.9159 84.4014 95.3994L86.3826 95.6726C86.7227 93.2068 87.0623 91 87.4012 89.0513L85.4308 88.7087ZM84.3977 95.4295C84.154 97.7039 83.549 99.6577 82.6038 101.312L84.3402 102.304C85.443 100.374 86.118 98.1467 86.3863 95.6425L84.3977 95.4295ZM82.5958 101.326C81.9032 102.585 80.5537 103.319 78.1282 103.241L78.0638 105.239C80.9289 105.332 83.1635 104.444 84.3482 102.29L82.5958 101.326ZM78.1436 103.241C76.5349 103.165 75.4498 102.678 74.7372 101.9L73.2628 103.252C74.4275 104.522 76.0731 105.145 78.0484 105.239L78.1436 103.241ZM74.7926 101.966C74.0205 100.963 73.434 99.7955 73.0394 98.4538L71.1206 99.0182C71.5793 100.578 72.2728 101.971 73.2074 103.186L74.7926 101.966ZM73.0562 98.5191C72.7351 97.0743 72.6139 95.5864 72.6946 94.0526L70.6974 93.9474C70.6074 95.6563 70.7422 97.3257 71.1038 98.9529L73.0562 98.5191ZM72.6948 94.0499C72.7791 92.3626 72.9051 90.8978 73.0712 89.6522L71.0888 89.3878C70.9135 90.7022 70.7835 92.2241 70.6972 93.9501L72.6948 94.0499ZM73.0656 89.689C73.5606 86.8014 74.4671 84.0833 75.7846 81.5306L74.0074 80.6134C72.5942 83.3513 71.6234 86.2652 71.0944 89.351L73.0656 89.689ZM75.7904 81.5192C77.1219 78.8563 78.7449 76.3591 80.6607 74.0267L79.1153 72.7573C77.1058 75.2036 75.4008 77.8264 74.0016 80.6248L75.7904 81.5192ZM80.6437 74.0469C81.7316 72.7916 82.8153 71.6668 83.8943 70.6708L82.5377 69.2012C81.3981 70.2532 80.2631 71.4323 79.1323 72.7371L80.6437 74.0469ZM83.9231 70.6431C85.0597 69.5065 86.1103 68.3248 87.0743 67.0978L85.5017 65.8622C84.5884 67.0245 83.591 68.1468 82.5089 69.2289L83.9231 70.6431ZM87.0743 67.0978C88.0549 65.8498 88.9017 64.5126 89.6144 63.0872L87.8256 62.1928C87.173 63.498 86.3985 64.7208 85.5017 65.8622L87.0743 67.0978ZM89.6144 63.0872C90.3531 61.6098 90.8495 59.9246 91.118 58.0454L89.1381 57.7626C88.8945 59.4674 88.4522 60.9395 87.8256 62.1928L89.6144 63.0872ZM91.1158 58.06C91.3968 56.2801 91.2545 54.5024 90.6976 52.7389L88.7904 53.3411C89.2575 54.8203 89.3712 56.2852 89.1402 57.748L91.1158 58.06ZM90.7018 52.7526C90.1562 50.934 89.3316 49.3238 88.2209 47.9353L86.6591 49.1847C87.5964 50.3562 88.3078 51.7327 88.7862 53.3273L90.7018 52.7526ZM88.24 47.96C87.1378 46.4904 85.8013 45.2914 84.235 44.3701L83.221 46.0939C84.556 46.8792 85.6942 47.899 86.64 49.16L88.24 47.96ZM84.2713 44.3924C82.6747 43.3594 80.9262 42.7915 79.0419 42.6972L78.9421 44.6948C80.4711 44.7712 81.8799 45.2273 83.1847 46.0716L84.2713 44.3924ZM79.0475 42.6975C77.379 42.6048 75.6411 42.838 73.8407 43.3782L74.4154 45.2938C76.0282 44.81 77.533 44.6165 78.9365 44.6945L79.0475 42.6975ZM73.8855 43.3659C72.0578 43.8228 70.366 44.6004 68.8153 45.695L69.9687 47.329C71.3194 46.3755 72.7849 45.7025 74.3705 45.3061L73.8855 43.3659ZM68.8487 45.6724C67.2922 46.6796 66.0005 47.9229 64.984 49.4015L66.632 50.5345C67.4928 49.2825 68.5904 48.2217 69.9353 47.3516L68.8487 45.6724ZM64.96 49.438C63.9915 50.9876 63.5624 52.7283 63.6572 54.6259L65.6548 54.5261C65.579 53.0103 65.9178 51.6791 66.656 50.498L64.96 49.438ZM63.6595 54.659C63.7492 55.7356 63.928 56.8498 64.1936 58.0009L66.1424 57.5511C65.896 56.4836 65.7335 55.4644 65.6525 54.493L63.6595 54.659ZM64.2193 58.0922C64.5367 59.0445 64.7331 59.9903 64.8115 60.931L66.8045 60.765C66.7123 59.6577 66.4819 58.5555 66.1167 57.4598L64.2193 58.0922ZM64.8241 61.0269C64.9675 61.8157 64.9328 62.6033 64.7152 63.4009L66.6448 63.9271C66.9392 62.8473 66.9898 61.7577 66.7919 60.6691L64.8241 61.0269ZM64.6961 63.4851C64.576 64.146 64.1728 64.8579 63.3433 65.6121L64.6887 67.0919C65.7365 66.1394 66.4427 65.0593 66.6639 63.8429L64.6961 63.4851ZM63.3294 65.625C61.9084 66.967 60.6058 67.528 59.408 67.528V69.528C61.2822 69.528 63.0516 68.6383 64.7026 67.079L63.3294 65.625ZM59.4635 67.5295C58.1273 67.4553 56.9044 67.0135 55.7754 66.1856L54.5926 67.7984C56.0236 68.8478 57.6167 69.43 59.3525 69.5265L59.4635 67.5295ZM55.7754 66.1856C54.6018 65.3249 53.5741 64.2224 52.6956 62.8647L51.0164 63.9512C52.0153 65.4949 53.2062 66.7817 54.5926 67.7984L55.7754 66.1856ZM52.7302 62.9224C51.9253 61.4735 51.4134 60.0454 51.1784 58.6356L49.2056 58.9644C49.4826 60.6266 50.0801 62.2704 50.9818 63.8936L52.7302 62.9224ZM86.056 122.672C86.056 124.863 85.2356 126.84 83.5174 128.637L84.9626 130.019C86.999 127.89 88.056 125.43 88.056 122.672H86.056ZM83.5166 128.638C81.8953 130.336 80.0589 131.144 77.968 131.144V133.144C80.6557 133.144 83.0007 132.075 84.9634 130.018L83.5166 128.638ZM77.968 131.144C75.9731 131.144 74.1769 130.345 72.5474 128.638L71.1006 130.018C73.0551 132.066 75.3549 133.144 77.968 133.144V131.144ZM72.5766 128.669C70.9205 126.777 70.136 124.785 70.136 122.672H68.136C68.136 125.337 69.1435 127.783 71.0714 129.987L72.5766 128.669ZM70.136 122.672C70.136 120.279 70.9356 118.319 72.5311 116.723L71.1169 115.309C69.1284 117.297 68.136 119.774 68.136 122.672H70.136ZM72.5625 116.69C74.197 114.9 75.9892 114.072 77.968 114.072V112.072C75.3388 112.072 73.035 113.207 71.0855 115.342L72.5625 116.69ZM77.968 114.072C80.0431 114.072 81.8753 114.909 83.5015 116.69L84.9785 115.342C83.0207 113.197 80.6716 112.072 77.968 112.072V114.072ZM83.5329 116.723C85.2305 118.421 86.056 120.388 86.056 122.672H88.056C88.056 119.836 87.0042 117.366 84.9471 115.309L83.5329 116.723Z" fill="#995434" mask="url(#path-2-outside-1_231_1068)"/>
</svg>
