<svg width="49" height="15" viewBox="0 0 49 15" fill="none" xmlns="http://www.w3.org/2000/svg">
<path d="M2.29655 11.7C3.38186 11.7 4.0931 10.6564 4.0931 9.6C4.0931 8.54357 3.38186 7.5 2.29655 7.5C1.21124 7.5 0.5 8.54357 0.5 9.6C0.5 10.6564 1.21124 11.7 2.29655 11.7Z" fill="white" stroke="black"/>
<path d="M46.7034 11.7C47.7887 11.7 48.5 10.6564 48.5 9.6C48.5 8.54357 47.7887 7.5 46.7034 7.5C45.6181 7.5 44.9069 8.54357 44.9069 9.6C44.9069 10.6564 45.6181 11.7 46.7034 11.7Z" fill="white" stroke="black"/>
<rect x="14.438" y="10.7" width="20.4483" height="3.8" fill="white" stroke="black"/>
<mask id="path-4-outside-1_32_122" maskUnits="userSpaceOnUse" x="2.29651" y="7" width="45" height="6" fill="black">
<rect fill="white" x="2.29651" y="7" width="45" height="6"/>
<path d="M2.29651 8H46.7034V11.2H2.29651V8Z"/>
</mask>
<path d="M2.29651 8H46.7034V11.2H2.29651V8Z" fill="white"/>
<path d="M2.29651 9H46.7034V7H2.29651V9ZM46.7034 10.2H2.29651V12.2H46.7034V10.2Z" fill="black" mask="url(#path-4-outside-1_32_122)"/>
<path d="M14.6633 1.13858L13.7524 2.04947V3.18809H16.9406H19.901L18.9901 0.910858L16.9406 1.59403L15.8019 1.13858H14.6633Z" fill="#462F2F"/>
<path d="M5.55445 0.683168L5.099 1.36634L4.64355 4.09901L6.69306 5.23762L10.5643 2.9604L9.65346 0L5.55445 0.683168Z" fill="#462F2F"/>
<path d="M29.0099 0.683168L26.7327 1.82178V2.27723L27.8713 4.55446L31.0594 3.87129L31.7426 1.82178L29.0099 0.683168Z" fill="#462F2F"/>
<path d="M38.5742 0.683168L35.6138 1.36634V4.09901L36.9802 3.41584L39.4851 4.09901L42.2178 3.41584V2.27723L41.3069 0.910891L38.5742 0.683168Z" fill="#462F2F"/>
<rect x="3.27722" y="2.27721" width="40.9901" height="5.0099" fill="#D18035"/>
<circle cx="3.50495" cy="4.78216" r="2.50495" fill="#D18035"/>
<circle cx="44.4951" cy="4.78216" r="2.50495" fill="#D18035"/>
</svg>
