<svg width="197" height="181" viewBox="0 0 197 181" fill="none" xmlns="http://www.w3.org/2000/svg">
<g filter="url(#filter0_ii_174_303)">
<ellipse cx="42.0458" cy="41.487" rx="40.9299" ry="40.454" transform="rotate(-0.277113 42.0458 41.487)" fill="#EBB57D"/>
</g>
<path d="M79.4752 41.306C79.5738 61.6764 62.9349 78.3404 42.2245 78.4406C21.514 78.5407 4.71479 62.0384 4.61627 41.668C4.51775 21.2976 21.1566 4.63361 41.867 4.53345C62.5775 4.43328 79.3767 20.9356 79.4752 41.306Z" stroke="#96341B" stroke-width="7"/>
<path d="M61.4383 41.3932C61.4886 51.789 52.8995 60.3515 42.1372 60.4036C31.375 60.4556 22.7035 51.9766 22.6532 41.5807C22.603 31.1849 31.192 22.6224 41.9543 22.5704C52.7165 22.5183 61.388 30.9973 61.4383 41.3932Z" fill="#D69A77" stroke="#995434" stroke-width="5"/>
<g filter="url(#filter1_ii_174_303)">
<ellipse cx="155.316" cy="40.9392" rx="40.9299" ry="40.454" transform="rotate(-0.277113 155.316 40.9392)" fill="#EBB57D"/>
</g>
<path d="M192.745 40.7581C192.844 61.1285 176.205 77.7925 155.494 77.8927C134.784 77.9929 117.985 61.4906 117.886 41.1202C117.788 20.7498 134.426 4.08576 155.137 3.98559C175.847 3.88543 192.647 20.3877 192.745 40.7581Z" stroke="#96341B" stroke-width="7"/>
<path d="M174.708 40.8453C174.758 51.2411 166.169 59.8036 155.407 59.8557C144.645 59.9078 135.973 51.4287 135.923 41.0329C135.873 30.6371 144.462 22.0746 155.224 22.0225C165.986 21.9705 174.658 30.4495 174.708 40.8453Z" fill="#D69A77" stroke="#995434" stroke-width="5"/>
<g filter="url(#filter2_ii_174_303)">
<path d="M180.093 97.9316C180.292 139.198 143.489 172.83 97.8905 173.051C52.2919 173.272 15.1651 139.997 14.9655 98.7303C14.7659 57.4636 51.5691 23.8315 97.1677 23.6109C142.766 23.3904 179.893 56.6649 180.093 97.9316Z" fill="#EBB57D"/>
</g>
<path d="M97.9074 176.551C145.102 176.323 183.803 141.435 183.593 97.9147C183.382 54.3945 144.345 19.8827 97.1508 20.111C49.9561 20.3392 11.2551 55.227 11.4656 98.7472C11.676 142.267 50.7127 176.779 97.9074 176.551Z" stroke="#96341B" stroke-width="7"/>
<ellipse cx="95.5908" cy="124.349" rx="30.1361" ry="23.1181" transform="rotate(-0.277113 95.5908 124.349)" fill="white"/>
<path d="M83.623 125.232C83.645 129.773 96.0368 135.493 96.8012 118.563C96.0555 135.08 108.827 129.651 108.805 125.11" stroke="#96341B" stroke-width="7" stroke-linecap="round"/>
<path d="M105.04 114.808C105.056 118.228 101.188 121.019 96.4004 121.042C91.6126 121.065 87.7178 118.312 87.7013 114.892C87.6848 111.472 91.5527 108.681 96.3405 108.657C101.128 108.634 105.023 111.388 105.04 114.808Z" fill="#96341B"/>
<ellipse cx="50.5159" cy="108.466" rx="16.5129" ry="16.1001" transform="rotate(-0.277113 50.5159 108.466)" fill="#96341B"/>
<ellipse cx="50.5159" cy="108.466" rx="16.5129" ry="16.1001" transform="rotate(-0.277113 50.5159 108.466)" fill="#96341B"/>
<path d="M58.3355 103.474C58.3477 105.982 56.3244 108.025 53.8165 108.037C51.3086 108.05 49.2657 106.026 49.2535 103.518C49.2414 101.01 51.2646 98.9676 53.7726 98.9555C56.2805 98.9433 58.3234 100.967 58.3355 103.474Z" fill="white"/>
<path d="M50.9374 128.28C50.9457 129.994 49.8905 131.617 48.042 132.838C46.198 134.056 43.6165 134.833 40.7356 134.847C37.8547 134.861 35.2659 134.109 33.4101 132.909C31.5499 131.705 30.4791 130.093 30.4708 128.379C30.4625 126.665 31.5177 125.042 33.3662 123.821C35.2102 122.602 37.7917 121.825 40.6726 121.811C43.5535 121.798 46.1423 122.549 47.9981 123.75C49.8583 124.954 50.9291 126.566 50.9374 128.28Z" fill="url(#paint0_linear_174_303)" stroke="#D68E5B"/>
<ellipse cx="54.3787" cy="78.1051" rx="7.43081" ry="5.3667" transform="rotate(-8.71648 54.3787 78.1051)" fill="#96341B"/>
<ellipse cx="143.813" cy="108.015" rx="16.5129" ry="16.1001" transform="rotate(-0.277113 143.813 108.015)" fill="#96341B"/>
<ellipse cx="143.813" cy="108.015" rx="16.5129" ry="16.1001" transform="rotate(-0.277113 143.813 108.015)" fill="#96341B"/>
<circle cx="140.899" cy="103.075" r="4.54105" transform="rotate(-0.277113 140.899 103.075)" fill="white"/>
<path d="M164.045 126.907C164.054 128.621 162.998 130.244 161.15 131.465C159.306 132.684 156.724 133.461 153.844 133.475C150.963 133.489 148.374 132.737 146.518 131.536C144.658 130.333 143.587 128.72 143.579 127.006C143.57 125.292 144.626 123.67 146.474 122.448C148.318 121.23 150.9 120.453 153.78 120.439C156.661 120.425 159.25 121.177 161.106 122.377C162.966 123.581 164.037 125.193 164.045 126.907Z" fill="url(#paint1_linear_174_303)" stroke="#D68E5B"/>
<ellipse cx="140.93" cy="78.0537" rx="7.43081" ry="5.3667" transform="rotate(19.8055 140.93 78.0537)" fill="#96341B"/>
<defs>
<filter id="filter0_ii_174_303" x="-0.884155" y="-0.967041" width="83.8599" height="84.9081" filterUnits="userSpaceOnUse" color-interpolation-filters="sRGB">
<feFlood flood-opacity="0" result="BackgroundImageFix"/>
<feBlend mode="normal" in="SourceGraphic" in2="BackgroundImageFix" result="shape"/>
<feColorMatrix in="SourceAlpha" type="matrix" values="0 0 0 0 0 0 0 0 0 0 0 0 0 0 0 0 0 0 127 0" result="hardAlpha"/>
<feOffset dy="-15"/>
<feGaussianBlur stdDeviation="1"/>
<feComposite in2="hardAlpha" operator="arithmetic" k2="-1" k3="1"/>
<feColorMatrix type="matrix" values="0 0 0 0 0 0 0 0 0 0 0 0 0 0 0 0 0 0 0.16 0"/>
<feBlend mode="normal" in2="shape" result="effect1_innerShadow_174_303"/>
<feColorMatrix in="SourceAlpha" type="matrix" values="0 0 0 0 0 0 0 0 0 0 0 0 0 0 0 0 0 0 127 0" result="hardAlpha"/>
<feOffset dx="-5" dy="15"/>
<feGaussianBlur stdDeviation="1"/>
<feComposite in2="hardAlpha" operator="arithmetic" k2="-1" k3="1"/>
<feColorMatrix type="matrix" values="0 0 0 0 1 0 0 0 0 1 0 0 0 0 1 0 0 0 1 0"/>
<feBlend mode="normal" in2="effect1_innerShadow_174_303" result="effect2_innerShadow_174_303"/>
</filter>
<filter id="filter1_ii_174_303" x="112.386" y="-1.51489" width="83.8599" height="84.9081" filterUnits="userSpaceOnUse" color-interpolation-filters="sRGB">
<feFlood flood-opacity="0" result="BackgroundImageFix"/>
<feBlend mode="normal" in="SourceGraphic" in2="BackgroundImageFix" result="shape"/>
<feColorMatrix in="SourceAlpha" type="matrix" values="0 0 0 0 0 0 0 0 0 0 0 0 0 0 0 0 0 0 127 0" result="hardAlpha"/>
<feOffset dy="-15"/>
<feGaussianBlur stdDeviation="1"/>
<feComposite in2="hardAlpha" operator="arithmetic" k2="-1" k3="1"/>
<feColorMatrix type="matrix" values="0 0 0 0 0 0 0 0 0 0 0 0 0 0 0 0 0 0 0.16 0"/>
<feBlend mode="normal" in2="shape" result="effect1_innerShadow_174_303"/>
<feColorMatrix in="SourceAlpha" type="matrix" values="0 0 0 0 0 0 0 0 0 0 0 0 0 0 0 0 0 0 127 0" result="hardAlpha"/>
<feOffset dx="-5" dy="15"/>
<feGaussianBlur stdDeviation="1"/>
<feComposite in2="hardAlpha" operator="arithmetic" k2="-1" k3="1"/>
<feColorMatrix type="matrix" values="0 0 0 0 1 0 0 0 0 1 0 0 0 0 1 0 0 0 1 0"/>
<feBlend mode="normal" in2="effect1_innerShadow_174_303" result="effect2_innerShadow_174_303"/>
</filter>
<filter id="filter2_ii_174_303" x="5.96472" y="14.6099" width="181.129" height="167.442" filterUnits="userSpaceOnUse" color-interpolation-filters="sRGB">
<feFlood flood-opacity="0" result="BackgroundImageFix"/>
<feBlend mode="normal" in="SourceGraphic" in2="BackgroundImageFix" result="shape"/>
<feColorMatrix in="SourceAlpha" type="matrix" values="0 0 0 0 0 0 0 0 0 0 0 0 0 0 0 0 0 0 127 0" result="hardAlpha"/>
<feOffset dy="-15"/>
<feGaussianBlur stdDeviation="1"/>
<feComposite in2="hardAlpha" operator="arithmetic" k2="-1" k3="1"/>
<feColorMatrix type="matrix" values="0 0 0 0 0 0 0 0 0 0 0 0 0 0 0 0 0 0 0.16 0"/>
<feBlend mode="normal" in2="shape" result="effect1_innerShadow_174_303"/>
<feColorMatrix in="SourceAlpha" type="matrix" values="0 0 0 0 0 0 0 0 0 0 0 0 0 0 0 0 0 0 127 0" result="hardAlpha"/>
<feOffset dx="-5" dy="15"/>
<feGaussianBlur stdDeviation="1"/>
<feComposite in2="hardAlpha" operator="arithmetic" k2="-1" k3="1"/>
<feColorMatrix type="matrix" values="0 0 0 0 1 0 0 0 0 1 0 0 0 0 1 0 0 0 1 0"/>
<feBlend mode="normal" in2="effect1_innerShadow_174_303" result="effect2_innerShadow_174_303"/>
</filter>
<linearGradient id="paint0_linear_174_303" x1="40.6702" y1="121.311" x2="40.738" y2="135.347" gradientUnits="userSpaceOnUse">
<stop stop-color="#DC8F73"/>
<stop offset="1" stop-color="#BE6F52"/>
</linearGradient>
<linearGradient id="paint1_linear_174_303" x1="153.778" y1="119.939" x2="153.846" y2="133.975" gradientUnits="userSpaceOnUse">
<stop stop-color="#DC8F73"/>
<stop offset="1" stop-color="#BE6F52"/>
</linearGradient>
</defs>
</svg>
