<svg width="49" height="24" viewBox="0 0 49 24" fill="none" xmlns="http://www.w3.org/2000/svg">
<path d="M2.29655 20.7C3.38186 20.7 4.0931 19.6564 4.0931 18.6C4.0931 17.5436 3.38186 16.5 2.29655 16.5C1.21124 16.5 0.5 17.5436 0.5 18.6C0.5 19.6564 1.21124 20.7 2.29655 20.7Z" fill="white" stroke="black"/>
<path d="M46.7034 20.7C47.7887 20.7 48.5 19.6564 48.5 18.6C48.5 17.5436 47.7887 16.5 46.7034 16.5C45.6181 16.5 44.9069 17.5436 44.9069 18.6C44.9069 19.6564 45.6181 20.7 46.7034 20.7Z" fill="white" stroke="black"/>
<rect x="14.438" y="19.7" width="20.4483" height="3.8" fill="white" stroke="black"/>
<mask id="path-4-outside-1_32_125" maskUnits="userSpaceOnUse" x="2.29651" y="16" width="45" height="6" fill="black">
<rect fill="white" x="2.29651" y="16" width="45" height="6"/>
<path d="M2.29651 17H46.7034V20.2H2.29651V17Z"/>
</mask>
<path d="M2.29651 17H46.7034V20.2H2.29651V17Z" fill="white"/>
<path d="M2.29651 18H46.7034V16H2.29651V18ZM46.7034 19.2H2.29651V21.2H46.7034V19.2Z" fill="black" mask="url(#path-4-outside-1_32_125)"/>
<path d="M13.9838 1.4505C13.9838 0.849685 14.4708 0.362625 15.0716 0.362625H33.9282C34.529 0.362625 35.0161 0.849685 35.0161 1.4505C35.0161 2.05132 34.529 2.53838 33.9282 2.53838H15.0716C14.4708 2.53838 13.9838 2.05132 13.9838 1.4505Z" fill="#804829"/>
<path d="M9.63232 3.62627C9.63232 2.62491 10.4441 1.81314 11.4455 1.81314H37.5545C38.5559 1.81314 39.3677 2.62491 39.3677 3.62627C39.3677 4.62764 38.5559 5.4394 37.5545 5.4394H24.5H11.4455C10.4441 5.4394 9.63232 4.62764 9.63232 3.62627Z" fill="#8D4F2D"/>
<path d="M4.55554 8.98889C4.55554 6.22747 6.79412 3.98889 9.55554 3.98889H39.4444C42.2059 3.98889 44.4444 6.22747 44.4444 8.98889V11.3182C44.4444 14.0796 42.2059 16.3182 39.4444 16.3182H9.55554C6.79411 16.3182 4.55554 14.0796 4.55554 11.3182V8.98889Z" fill="#A7613A"/>
<path d="M19.7858 3.62624L19.0606 3.26362L19.4232 2.17574L20.5111 2.90099L19.7858 3.62624Z" fill="white"/>
<path d="M19.7858 3.62624L19.0606 3.26362L19.4232 2.17574L20.5111 2.90099L19.7858 3.62624Z" fill="white"/>
<path d="M19.7858 3.62624L19.0606 3.26362L19.4232 2.17574L20.5111 2.90099L19.7858 3.62624Z" fill="white"/>
<path d="M33.9282 5.07676L33.203 4.71413L33.5656 3.62626L34.6535 4.35151L33.9282 5.07676Z" fill="white"/>
<path d="M20.5111 1.4505L19.7858 1.08788L20.1484 0L21.2363 0.725253L20.5111 1.4505Z" fill="white"/>
<path d="M28.1262 3.62626L27.401 3.26363L27.7636 2.17576L28.8515 2.90101L28.1262 3.62626Z" fill="white"/>
<path d="M15.0717 2.53838L14.3464 2.17575L14.7091 1.08788L15.7969 1.81313L15.0717 2.53838Z" fill="white"/>
<path d="M15.0717 2.53838L14.3464 2.17575L14.7091 1.08788L15.7969 1.81313L15.0717 2.53838Z" fill="white"/>
<path d="M30.302 1.4505L29.5767 1.08788L29.9394 8.64568e-08L31.0272 0.725253L30.302 1.4505Z" fill="white"/>
<path d="M25.2252 2.17576L24.5 1.81313L24.8626 0.725253L25.9505 1.45051L25.2252 2.17576Z" fill="white"/>
</svg>
