<svg width="49" height="27" viewBox="0 0 49 27" fill="none" xmlns="http://www.w3.org/2000/svg">
<path d="M41.3086 16.1281C43.6652 16.6264 43.2929 20.0975 40.8842 20.0848L7.19131 19.9071C6.00658 19.9008 5.08695 18.8718 5.21327 17.6938L5.9417 10.9012C6.06803 9.72317 7.18494 8.91258 8.34406 9.15768L41.3086 16.1281Z" fill="#694B4B"/>
<path d="M16.0734 6.87001C15.0734 5.37001 7.07338 9.37001 7.07338 9.37001L42.0734 16.37C42.0734 16.37 17.0734 8.37001 16.0734 6.87001Z" fill="#593737"/>
<path d="M19.5734 6.87C19.5734 8.52685 18.2302 9.87 16.5734 9.87C14.9165 9.87 13.5734 8.52685 13.5734 6.87C13.5734 5.21314 14.9165 3.87 16.5734 3.87C18.2302 3.87 19.5734 5.21314 19.5734 6.87Z" fill="#DE1010"/>
<path fill-rule="evenodd" clip-rule="evenodd" d="M20.0296 0.222703C20.1828 0.452467 20.1207 0.762902 19.8909 0.916078C19.6967 1.04553 19.4582 1.09145 19.3093 1.11524C19.2281 1.12822 19.1472 1.13801 19.0803 1.1461L19.0734 1.14694C19.0001 1.15582 18.948 1.16231 18.9067 1.16952C18.4359 1.25179 18.1633 1.30523 17.8921 1.50528C17.5724 1.74112 17.4158 2.15882 17.2493 2.72496L17.2451 2.73911C17.0801 3.30016 16.9148 3.86223 16.8678 4.37878C16.8428 4.65378 16.5996 4.85646 16.3246 4.83145C16.0496 4.80645 15.8469 4.56325 15.8719 4.28824C15.9279 3.67236 16.1173 3.02907 16.2734 2.49881C16.279 2.47999 16.2845 2.46132 16.2899 2.4428C16.4434 1.92088 16.6695 1.16453 17.2984 0.700559C17.7705 0.352287 18.2588 0.267294 18.6921 0.191849C18.7063 0.189374 18.7205 0.18691 18.7346 0.184446C18.8053 0.172091 18.8833 0.162645 18.9492 0.154674L18.9532 0.154186C19.0251 0.145484 19.0895 0.137673 19.1515 0.127775C19.2135 0.117867 19.2618 0.107522 19.2985 0.0966361C19.3259 0.088508 19.3378 0.0826525 19.3393 0.0819626C19.5688 -0.0685831 19.8771 -0.00602202 20.0296 0.222703Z" fill="white"/>
<path d="M2.29655 23.7C3.38186 23.7 4.0931 22.6564 4.0931 21.6C4.0931 20.5436 3.38186 19.5 2.29655 19.5C1.21124 19.5 0.5 20.5436 0.5 21.6C0.5 22.6564 1.21124 23.7 2.29655 23.7Z" fill="white" stroke="black"/>
<path d="M46.7034 23.7C47.7888 23.7 48.5 22.6564 48.5 21.6C48.5 20.5436 47.7888 19.5 46.7034 19.5C45.6181 19.5 44.9069 20.5436 44.9069 21.6C44.9069 22.6564 45.6181 23.7 46.7034 23.7Z" fill="white" stroke="black"/>
<rect x="14.4379" y="22.7" width="20.4483" height="3.8" fill="white" stroke="black"/>
<mask id="path-8-outside-1_326_246" maskUnits="userSpaceOnUse" x="2.29655" y="19" width="45" height="6" fill="black">
<rect fill="white" x="2.29655" y="19" width="45" height="6"/>
<path d="M2.29655 20H46.7034V23.2H2.29655V20Z"/>
</mask>
<path d="M2.29655 20H46.7034V23.2H2.29655V20Z" fill="white"/>
<path d="M2.29655 21H46.7034V19H2.29655V21ZM46.7034 22.2H2.29655V24.2H46.7034V22.2Z" fill="black" mask="url(#path-8-outside-1_326_246)"/>
</svg>
