<svg width="49" height="52" viewBox="0 0 49 52" fill="none" xmlns="http://www.w3.org/2000/svg">
<path d="M34.4059 10.6135C34.4059 16.4752 29.6541 21.227 23.7924 21.227C17.9308 21.227 13.179 16.4752 13.179 10.6135C13.179 4.75182 17.9308 0 23.7924 0C29.6541 0 34.4059 4.75182 34.4059 10.6135Z" fill="#E96B6B"/>
<path d="M26.8586 18.1609C26.8586 24.0225 22.1067 28.7743 16.2451 28.7743C10.3834 28.7743 5.63159 24.0225 5.63159 18.1609C5.63159 12.2992 10.3834 7.54736 16.2451 7.54736C22.1067 7.54736 26.8586 12.2992 26.8586 18.1609Z" fill="#E96B6B"/>
<path d="M43.3685 18.1609C43.3685 24.0225 38.6166 28.7743 32.755 28.7743C26.8933 28.7743 22.1415 24.0225 22.1415 18.1609C22.1415 12.2992 26.8933 7.54736 32.755 7.54736C38.6166 7.54736 43.3685 12.2992 43.3685 18.1609Z" fill="#E96B6B"/>
<rect width="16.5099" height="20.0477" transform="translate(16.2451 24.7648)" fill="#433737"/>
<path d="M16.2451 44.8125L24.4154 24.8238H8.07483L16.2451 44.8125Z" fill="#4E4040"/>
<path d="M32.637 44.8125L40.9094 24.8238H24.3646L32.637 44.8125Z" fill="#4E4040"/>
<path d="M2.29655 48.7C3.38186 48.7 4.0931 47.6564 4.0931 46.6C4.0931 45.5436 3.38186 44.5 2.29655 44.5C1.21124 44.5 0.5 45.5436 0.5 46.6C0.5 47.6564 1.21124 48.7 2.29655 48.7Z" fill="white" stroke="black"/>
<path d="M46.7034 48.7C47.7887 48.7 48.5 47.6564 48.5 46.6C48.5 45.5436 47.7887 44.5 46.7034 44.5C45.6181 44.5 44.9069 45.5436 44.9069 46.6C44.9069 47.6564 45.6181 48.7 46.7034 48.7Z" fill="white" stroke="black"/>
<rect x="14.438" y="47.7" width="20.4483" height="3.8" fill="white" stroke="black"/>
<mask id="path-9-outside-1_32_123" maskUnits="userSpaceOnUse" x="2.29651" y="44" width="45" height="6" fill="black">
<rect fill="white" x="2.29651" y="44" width="45" height="6"/>
<path d="M2.29651 45H46.7034V48.2H2.29651V45Z"/>
</mask>
<path d="M2.29651 45H46.7034V48.2H2.29651V45Z" fill="white"/>
<path d="M2.29651 46H46.7034V44H2.29651V46ZM46.7034 47.2H2.29651V49.2H46.7034V47.2Z" fill="black" mask="url(#path-9-outside-1_32_123)"/>
</svg>
