<svg width="201" height="273" viewBox="0 0 201 273" fill="none" xmlns="http://www.w3.org/2000/svg">
<path d="M182 132C182 174.562 147.938 209 106 209C64.0618 209 30 174.562 30 132C30 89.4384 64.0618 55.0001 106 55.0001C147.938 55.0001 182 89.4384 182 132Z" fill="#EBB57D" stroke="#995434" stroke-width="6"/>
<path d="M61.1079 140.627L62.0886 140.431L62.0886 140.431L61.1079 140.627ZM62.4089 142.036L62.0886 140.431L60.1273 140.823L60.4477 142.428L62.4089 142.036ZM62.0886 140.431C54.2469 101.161 100.036 73.7746 130.925 99.2604L132.198 97.7177C99.858 71.0345 51.9172 99.7079 60.1273 140.823L62.0886 140.431Z" fill="#995434"/>
<path d="M142.3 108.55L125.503 105.519L135.564 92.8663L142.3 108.55Z" fill="#995434"/>
<path d="M149.47 133.628L148.475 133.726L148.475 133.726L149.47 133.628ZM148.315 132.098L148.475 133.726L150.466 133.53L150.306 131.902L148.315 132.098ZM148.475 133.726C152.393 173.579 104.119 196.301 75.9029 167.885L74.4837 169.294C104.025 199.046 154.568 175.256 150.466 133.53L148.475 133.726Z" fill="#995434"/>
<path d="M68.5034 161.694L84.9182 166.372L73.654 177.967L68.5034 161.694Z" fill="#995434"/>
</svg>
