<svg width="426" height="852" viewBox="0 0 426 852" fill="none" xmlns="http://www.w3.org/2000/svg">
<g clip-path="url(#clip0_210_613)">
<rect width="426" height="852" fill="#FFE6CE"/>
<path d="M-12.75 349.998L31.4999 298.248L130 249.748L163.5 160.748L265.5 120.248L304.75 17.2477L368.25 -3.0022L505.75 -8.25223L439.25 29.4978L406 120.248L300.5 165.998L259 264.748L168 301.998L117 406.5L19.75 442.748L-15.75 517.998L-12.75 349.998Z" fill="#FFF7B8"/>
<path d="M-12.875 211.498L31.3749 159.748L129.875 111.248L163.375 22.2479L265.375 -18.2521L304.625 -121.252L368.125 -141.502L505.625 -146.752L439.125 -109.002L405.875 -18.2522L300.375 27.4979L258.875 126.248L167.875 163.498L119.125 262.248L19.625 304.248L-15.875 379.498L-12.875 211.498Z" fill="#FFC0A7"/>
<path d="M128.625 913.998L210.25 858.998L269.25 825.248L304.875 724.748L406.875 684.248L446.125 581.248L552.75 549.248L598 443.998L647.125 555.748L580.625 593.498L548 695.748L441.875 729.998L406.875 830.498L309.375 865.998L260.625 964.748L161.125 1006.75L125.625 1082L128.625 913.998Z" fill="#FFC0A7"/>
<path d="M269.125 916.31L350.75 861.31L409.75 827.56L445.375 727.06L547.375 686.56L586.625 583.56L693.25 551.56L738.5 446.31L787.625 558.06L721.125 595.81L688.5 698.06L582.375 732.31L547.375 832.81L449.875 868.31L401.125 967.06L301.625 1009.06L266.125 1084.31L269.125 916.31Z" fill="#FFF7B8"/>
<path d="M412.625 914.31L494.25 859.31L553.25 825.56L588.875 725.06L690.875 684.56L730.125 581.56L836.75 549.56L882 444.31L931.125 556.06L864.625 593.81L832 696.06L725.875 730.31L690.875 830.81L593.375 866.31L544.625 965.06L445.125 1007.06L409.625 1082.31L412.625 914.31Z" fill="#FFE6CE"/>
<path d="M-152.375 210.498L-108.125 158.748L-9.62502 110.248L23.8749 21.2479L125.875 -19.2521L165.125 -122.252L228.625 -142.502L366.125 -147.752L299.625 -110.002L258.5 -25.5L160.875 26.4979L119.375 125.248L28.375 162.498L-26 247.5L-119.875 303.248L-155.375 378.498L-152.375 210.498Z" fill="#FFE6CE"/>
<path d="M-171.875 74.4998L-127.625 22.7498L-29.125 -25.7502L4.37494 -114.75L106.375 -155.25L145.625 -258.25L209.125 -278.5L346.625 -283.75L280.125 -246L246.875 -155.25L141.375 -109.5L99.8749 -10.7502L8.875 26.4997L-39.875 125.25L-139.375 167.25L-174.875 242.5L-171.875 74.4998Z" fill="#FFF7B8"/>
<path d="M-11.375 487.998L32.8749 436.248L118.75 411.498L164.875 298.748L260.375 268.498L306.125 155.248L407.375 119.998L443.75 20.7478L538 -15.7522L608.5 -15.7522L544.25 119.998L440.625 167.498L400 268.498L301.875 303.998L260.375 402.748L164.875 444.748L118.75 554.498L21.125 580.748L-14.375 655.998L-11.375 487.998Z" fill="#FFE6CE"/>
<path d="M-14.3437 635.188L29.9062 583.438L117.656 558.75L161.906 445.938L263.906 405.438L303.156 302.437L404.406 267.188L440.781 167.938L549.281 122L605.531 -9.00001L605.531 131.438L541.281 267.188L437.656 314.688L404.406 405.437L298.906 451.188L263.906 548.75L164.75 590.5L117.656 697L18.1562 727.938L-17.3438 803.187L-14.3437 635.188Z" fill="#FFC0A7"/>
<path d="M-12.25 787.748L29.9062 718.935L122.75 694.998L161.906 581.435L264.5 551.248L305.75 443.498L411 402.685L440.781 303.435L549.281 257.498L605.531 126.498L605.531 266.935L541.281 402.685L437.656 450.185L411 551.248L298.906 586.685L264.5 694.998L166.406 722.685L122.75 827.248L53.5 867.748L-17.3438 938.685L-12.25 787.748Z" fill="#FFF7B8"/>
<path d="M-9.13403 932.31L33.0222 863.498L125.866 839.56L165.022 725.998L267.616 695.81L302.022 591.248L414.116 547.248L443.897 447.998L552.397 402.06L608.647 271.06L608.647 411.498L544.397 547.248L440.772 594.748L407.5 695.81L302.022 731.248L260.522 829.998L169.522 867.248L125.866 971.81L56.616 1012.31L-14.2278 1083.25L-9.13403 932.31Z" fill="#FFE6CE"/>
<path d="M355 994V994C394.212 994 426 962.212 426 923V923V923C426 883.788 457.788 852 497 852V852" stroke="#FFAD80" stroke-width="18.5"/>
<path d="M213 994V994C252.212 994 284 962.212 284 923V923V923C284 883.788 315.788 852 355 852V852" stroke="#FFDC7D" stroke-width="18.5"/>
<path d="M355 852V852C394.212 852 426 820.212 426 781V781V781C426 741.788 457.788 710 497 710V710" stroke="#FFDC7D" stroke-width="18.5"/>
<path d="M71 994V994C110.212 994 142 962.212 142 923V923V923C142 883.788 173.788 852 213 852V852" stroke="#FF8083" stroke-width="18.5"/>
<path d="M213 852V852C252.212 852 284 820.212 284 781V781V781C284 741.788 315.788 710 355 710V710" stroke="#FF8083" stroke-width="18.5"/>
<path d="M355 710V710C394.212 710 426 678.212 426 639V639V639C426 599.788 457.788 568 497 568V568" stroke="#FF8083" stroke-width="18.5"/>
<path d="M-71 994V994C-31.7878 994 9.35048e-06 962.212 7.86075e-06 923V923V923C6.37102e-06 883.788 31.7878 852 71 852V852" stroke="#FFAD80" stroke-width="18.5"/>
<path d="M213 710V710C252.212 710 284 678.212 284 639V639V639C284 599.788 315.788 568 355 568V568" stroke="#FFAD80" stroke-width="18.5"/>
<path d="M355 568V568C394.212 568 426 536.212 426 497V497V497C426 457.788 457.788 426 497 426V426" stroke="#FFAD80" stroke-width="18.5"/>
<path d="M71 852V852C110.212 852 142 820.212 142 781V781V781C142 741.788 173.788 710 213 710V710" stroke="#FFAD80" stroke-width="18.5"/>
<path d="M-71 852V852C-31.7878 852 9.35048e-06 820.212 7.86075e-06 781V781V781C6.37102e-06 741.788 31.7878 710 71 710V710" stroke="#FFDC7D" stroke-width="18.5"/>
<path d="M71 710V710C110.212 710 142 678.212 142 639V639V639C142 599.788 173.788 568 213 568V568" stroke="#FFDC7D" stroke-width="18.5"/>
<path d="M213 568V568C252.212 568 284 536.212 284 497V497V497C284 457.788 315.788 426 355 426V426" stroke="#FFDC7D" stroke-width="18.5"/>
<path d="M355 426V426C394.212 426 426 394.212 426 355V355V355C426 315.788 457.788 284 497 284V284" stroke="#FFDC7D" stroke-width="18.5"/>
<path d="M-71 710V710C-31.7878 710 9.35048e-06 678.212 7.86075e-06 639V639V639C6.37102e-06 599.788 31.7878 568 71 568V568" stroke="#FF8083" stroke-width="18.5"/>
<path d="M71 568V568C110.212 568 142 536.212 142 497V497V497C142 457.788 173.788 426 213 426V426" stroke="#FF8083" stroke-width="18.5"/>
<path d="M213 426V426C252.212 426 284 394.212 284 355V355V355C284 315.788 315.788 284 355 284V284" stroke="#FF8083" stroke-width="18.5"/>
<path d="M355 284V284C394.212 284 426 252.212 426 213V213V213C426 173.788 457.788 142 497 142V142" stroke="#FF8083" stroke-width="18.5"/>
<path d="M213 284V284C252.212 284 284 252.212 284 213V213V213C284 173.788 315.788 142 355 142V142" stroke="#FFAD80" stroke-width="18.5"/>
<path d="M355 142V142C394.212 142 426 110.212 426 71V71V71C426 31.7878 457.788 -3.95569e-06 497 -2.46595e-06V-2.46595e-06" stroke="#FFAD80" stroke-width="18.5"/>
<path d="M71 426V426C110.212 426 142 394.212 142 355V355V355C142 315.788 173.788 284 213 284V284" stroke="#FFAD80" stroke-width="18.5"/>
<path d="M-71 568V568C-31.7878 568 9.35048e-06 536.212 7.86075e-06 497V497V497C6.37102e-06 457.788 31.7878 426 71 426V426" stroke="#FFAD80" stroke-width="18.5"/>
<path d="M-71 426V426C-31.7878 426 9.35048e-06 394.212 7.86075e-06 355V355V355C6.37102e-06 315.788 31.7878 284 71 284V284" stroke="#FFDC7D" stroke-width="18.5"/>
<path d="M71 284V284C110.212 284 142 252.212 142 213V213V213C142 173.788 173.788 142 213 142V142" stroke="#FFDC7D" stroke-width="18.5"/>
<path d="M213 142V142C252.212 142 284 110.212 284 71V71V71C284 31.7878 315.788 -3.95569e-06 355 -2.46595e-06V-2.46595e-06" stroke="#FFDC7D" stroke-width="18.5"/>
<path d="M355 -7.71483e-08V-7.71483e-08C394.212 -7.71483e-08 426 -31.7878 426 -71V-71V-71C426 -110.212 457.788 -142 497 -142V-142" stroke="#FFDC7D" stroke-width="18.5"/>
<path d="M-71 284V284C-31.7878 284 9.35048e-06 252.212 7.86075e-06 213V213V213C6.37102e-06 173.788 31.7878 142 71 142V142" stroke="#FF8083" stroke-width="18.5"/>
<path d="M71 142V142C110.212 142 142 110.212 142 71V71V71C142 31.7878 173.788 -3.95569e-06 213 -2.46595e-06V-2.46595e-06" stroke="#FF8083" stroke-width="18.5"/>
<path d="M213 -7.71483e-08V-7.71483e-08C252.212 -7.71483e-08 284 -31.7878 284 -71V-71V-71C284 -110.212 315.788 -142 355 -142V-142" stroke="#FF8083" stroke-width="18.5"/>
<path d="M-71 142V142C-31.7878 142 9.35048e-06 110.212 7.86075e-06 71V71V71C6.37102e-06 31.7878 31.7878 -3.95569e-06 71 -2.46595e-06V-2.46595e-06" stroke="#FFAD80" stroke-width="18.5"/>
<path d="M71 -7.71483e-08V-7.71483e-08C110.212 -7.71483e-08 142 -31.7878 142 -71V-71V-71C142 -110.212 173.788 -142 213 -142V-142" stroke="#FFAD80" stroke-width="18.5"/>
</g>
<defs>
<clipPath id="clip0_210_613">
<rect width="426" height="852" fill="white"/>
</clipPath>
</defs>
</svg>
